<?xml version="1.0" encoding="UTF-8"?>
<svg id="a" data-name="normaal logo" xmlns="http://www.w3.org/2000/svg" viewBox="0 0 551.01 269.66">
  <defs>
    <style>
      .j {
        fill: #549df0;
      }

      .k {
        fill: #490052;
        stroke: #e6f1df;
        stroke-miterlimit: 10;
        stroke-width: 2.5px;
      }
    </style>
  </defs>
  <rect class="j" width="551.01" height="269.66"/>
  <g id="b" data-name="infinite sounds reallllll">
    <g id="c" data-name="sounds">
      <g>
        <g id="d" data-name="S">
          <path class="k" d="m61.24,106.19v15.27"/>
          <path class="k" d="m39.07,129.39c0,25.46,0,50.92,0,76.37"/>
          <path class="k" d="m50.16,117.44v15.27"/>
          <path class="k" d="m27.99,142.06v15.27"/>
          <path class="k" d="m16.9,155.49v15.27"/>
          <path class="k" d="m27.99,157.33v15.27"/>
          <path class="k" d="m61.24,167.29v15.27"/>
          <path class="k" d="m50.16,178.54v15.27"/>
          <path class="k" d="m50.16,165.53v15.27"/>
          <path class="k" d="m27.99,203.16v15.27"/>
          <path class="k" d="m16.9,216.59v15.27"/>
        </g>
        <g>
          <path class="k" d="m127.37,90.7v15.11"/>
          <path class="k" d="m116.27,96.18v15.11"/>
          <path class="k" d="m105.2,106.68c0,5.04,0,10.07,0,15.11"/>
          <path class="k" d="m94.04,121.34v64.95"/>
          <path class="k" d="m105.03,182.9c0,5.04,0,10.07,0,15.11"/>
          <path class="k" d="m116.19,191.7v15.11"/>
          <path class="k" d="m83.03,147.44c0,5.04,0,10.07,0,15.11"/>
          <path class="k" d="m127.37,195.8v15.11"/>
          <path class="k" d="m138.24,96.25v15.11"/>
          <path class="k" d="m149.16,105.83v15.11"/>
          <path class="k" d="m160.32,119.74c0,21.95,0,43.9,0,65.85"/>
          <path class="k" d="m149.33,182.33v15.11"/>
          <path class="k" d="m138.17,191.77v15.11"/>
          <path class="k" d="m171.33,147.02c0,5.04,0,10.07,0,15.11"/>
        </g>
        <g id="e" data-name="U">
          <path class="k" d="m270.22,123.6c0,21.61,0,43.22,0,64.83"/>
          <path class="k" d="m193.45,104.32v64.83"/>
          <path class="k" d="m204.44,107.15v96.98"/>
          <path class="k" d="m215.52,213.27c0-5.04,0-10.07,0-15.11"/>
          <path class="k" d="m223.69,207.68v15.11"/>
          <path class="k" d="m241.11,212.17v15.11"/>
          <path class="k" d="m232.15,215.15v15.11"/>
          <path class="k" d="m248.78,205.7v15.11"/>
          <path class="k" d="m259.86,121.25v96.98"/>
        </g>
        <g id="f" data-name="N">
          <path class="k" d="m292.38,129.86v106.26"/>
          <path class="k" d="m323.78,169.23v22.91"/>
          <path class="k" d="m315.93,158.43v23.17"/>
          <path class="k" d="m339.48,190.6v23"/>
          <path class="k" d="m331.63,179.95v23"/>
          <path class="k" d="m355.21,211.6v22.91"/>
          <path class="k" d="m363.06,221.92v23"/>
          <path class="k" d="m347.36,201.15v23"/>
          <path class="k" d="m370.88,148.77v106.22"/>
          <path class="k" d="m308.08,147.61v23.1"/>
          <path class="k" d="m300.23,136.7c0,7.7,0,15.4,0,23.1"/>
        </g>
        <g id="g" data-name="D">
          <path class="k" d="m393,151.69v106.22"/>
          <path class="k" d="m419.42,158.84v22.8"/>
          <path class="k" d="m406.21,152.94v16.54"/>
          <path class="k" d="m432.63,167.15v22.8"/>
          <path class="k" d="m459.05,180.53v22.8"/>
          <path class="k" d="m445.84,174.17v22.8"/>
          <path class="k" d="m471.5,190.01c0,7.6,0,15.2,0,22.8"/>
          <path class="k" d="m471.5,192.77c0,7.6,0,15.2,0,22.8"/>
          <path class="k" d="m459.05,205.73v22.8"/>
          <path class="k" d="m445.84,212.46v22.8"/>
          <path class="k" d="m459.04,199.79v22.8"/>
          <path class="k" d="m459.04,186.79v22.8"/>
          <path class="k" d="m432.63,221.7v22.8"/>
          <path class="k" d="m419.42,231.66v22.8"/>
          <path class="k" d="m406.21,242.64v16.54"/>
        </g>
        <g id="h" data-name="S">
          <path class="k" d="m537.96,126.34v15.27"/>
          <path class="k" d="m515.79,152.45v76.37"/>
          <path class="k" d="m526.88,139.77v15.27"/>
          <path class="k" d="m504.71,164.39v15.27"/>
          <path class="k" d="m493.62,175.65v15.27"/>
          <path class="k" d="m504.71,179.67v15.27"/>
          <path class="k" d="m537.96,187.44v15.27"/>
          <path class="k" d="m526.88,200.87v15.27"/>
          <path class="k" d="m526.88,187.87v15.27"/>
          <path class="k" d="m504.71,225.49v15.27"/>
          <path class="k" d="m493.62,236.74v15.27"/>
        </g>
      </g>
    </g>
    <g id="i" data-name="infinitre">
      <g>
        <path class="k" d="m165.78,46.4c0,4.5,0,9.01,0,13.51"/>
        <path class="k" d="m175.08,47.04c0,4.5,0,9.01,0,13.51"/>
        <path class="k" d="m156.47,21.77c0,20.98,0,41.96,0,62.95"/>
        <path class="k" d="m165.78,22.3c0,4.31,0,8.62,0,12.92"/>
        <path class="k" d="m175.08,22.94c0,4.31,0,8.61,0,12.92"/>
        <path class="k" d="m184.39,23.68c0,4.31,0,8.62,0,12.92"/>
        <path class="k" d="m193.69,24.53c0,4.31,0,8.62,0,12.92"/>
        <path class="k" d="m16.9,34.53v12.68"/>
        <path class="k" d="m26.22,32.13c0,4.23,0,8.46,0,12.68"/>
        <path class="k" d="m35.55,29.99c0,4.23,0,8.46,0,12.68"/>
        <path class="k" d="m16.9,84.54v12.92"/>
        <path class="k" d="m26.22,82.14c0,4.31,0,8.62,0,12.92"/>
        <path class="k" d="m35.55,80c0,4.31,0,8.62,0,12.92"/>
        <path class="k" d="m44.86,28.11c0,20.99,0,41.98,0,62.98"/>
        <path class="k" d="m54.15,26.48c0,4.23,0,8.46,0,12.68"/>
        <path class="k" d="m63.44,25.07c0,4.23,0,8.46,0,12.68"/>
        <path class="k" d="m72.73,23.9c0,4.23,0,8.46,0,12.68"/>
        <path class="k" d="m54.15,76.48c0,4.31,0,8.61,0,12.92"/>
        <path class="k" d="m63.44,75.08c0,4.31,0,8.62,0,12.92"/>
        <path class="k" d="m72.73,73.9c0,4.31,0,8.61,0,12.92"/>
        <path class="k" d="m212.3,26.44v12.68"/>
        <path class="k" d="m221.62,27.52c0,4.23,0,8.46,0,12.68"/>
        <path class="k" d="m230.95,28.66c0,4.23,0,8.46,0,12.68"/>
        <path class="k" d="m212.3,76.45v12.92"/>
        <path class="k" d="m221.62,77.53c0,4.31,0,8.61,0,12.92"/>
        <path class="k" d="m230.95,78.67c0,4.31,0,8.61,0,12.92"/>
        <path class="k" d="m240.26,29.85c0,20.99,0,41.98,0,62.98"/>
        <path class="k" d="m249.55,31.07v12.68"/>
        <path class="k" d="m258.84,32.32c0,4.23,0,8.46,0,12.68"/>
        <path class="k" d="m268.13,33.59v12.68"/>
        <path class="k" d="m249.55,81.07v12.92"/>
        <path class="k" d="m258.84,82.33v12.92"/>
        <path class="k" d="m268.13,83.6c0,4.31,0,8.61,0,12.92"/>
        <path class="k" d="m351.87,44.32c0,4.23,0,8.46,0,12.68"/>
        <path class="k" d="m361.19,45.25v12.68"/>
        <path class="k" d="m370.52,46.1c0,4.23,0,8.46,0,12.68"/>
        <path class="k" d="m351.87,94.32c0,4.31,0,8.61,0,12.92"/>
        <path class="k" d="m361.19,95.26v12.92"/>
        <path class="k" d="m370.52,96.1c0,4.31,0,8.62,0,12.92"/>
        <path class="k" d="m379.83,46.84v62.98"/>
        <path class="k" d="m389.12,47.48c0,4.23,0,8.46,0,12.68"/>
        <path class="k" d="m398.41,48v12.68"/>
        <path class="k" d="m407.7,48.4v12.68"/>
        <path class="k" d="m389.12,97.49c0,4.31,0,8.62,0,12.92"/>
        <path class="k" d="m398.41,98.01v12.92"/>
        <path class="k" d="m407.7,98.4c0,4.31,0,8.62,0,12.92"/>
        <path class="k" d="m286.74,36.16v62.98"/>
        <path class="k" d="m305.35,61.32c0,4.5,0,9.01,0,13.51"/>
        <path class="k" d="m314.65,73.17c0,4.5,0,9.01,0,13.51"/>
        <path class="k" d="m323.98,83.52c0,4.5,0,9.01,0,13.51"/>
        <path class="k" d="m333.26,42.26c0,20.98,0,41.96,0,62.95"/>
        <path class="k" d="m296.04,47.14v12.92"/>
        <path class="k" d="m426.31,48.79c0,4.23,0,8.46,0,12.68"/>
        <path class="k" d="m435.63,48.75c0,4.23,0,8.46,0,12.68"/>
        <path class="k" d="m444.96,48.54c0,4.23,0,8.46,0,12.68"/>
        <path class="k" d="m454.27,48.16c0,20.99,0,41.98,0,62.98"/>
        <path class="k" d="m463.56,47.59c0,4.23,0,8.46,0,12.68"/>
        <path class="k" d="m472.85,46.83c0,4.23,0,8.46,0,12.68"/>
        <path class="k" d="m482.14,45.86c0,4.23,0,8.46,0,12.68"/>
        <path class="k" d="m510.05,65.76c0,4.5,0,9.01,0,13.51"/>
        <path class="k" d="m519.35,63.88v13.51"/>
        <path class="k" d="m500.74,43.29c0,20.98,0,41.96,0,62.95"/>
        <path class="k" d="m510.05,41.66c0,4.31,0,8.61,0,12.92"/>
        <path class="k" d="m519.35,39.78v12.92"/>
        <path class="k" d="m528.66,37.64c0,4.31,0,8.61,0,12.92"/>
        <path class="k" d="m537.96,35.24c0,4.31,0,8.62,0,12.92"/>
        <path class="k" d="m510.05,91.69c0,4.31,0,8.61,0,12.92"/>
        <path class="k" d="m519.35,89.81v12.92"/>
        <path class="k" d="m528.66,87.67c0,4.31,0,8.61,0,12.92"/>
        <path class="k" d="m537.96,85.28c0,4.31,0,8.62,0,12.92"/>
        <path class="k" d="m91.34,22.17c0,20.99,0,41.98,0,62.98"/>
        <path class="k" d="m109.95,43.86v13.51"/>
        <path class="k" d="m119.26,54.28v13.51"/>
        <path class="k" d="m128.58,63.39v13.51"/>
        <path class="k" d="m137.86,21.12v62.95"/>
        <path class="k" d="m100.65,31.32v12.92"/>
      </g>
    </g>
  </g>
</svg>