<svg width="15" height="14" viewBox="0 0 15 14" fill="none" xmlns="http://www.w3.org/2000/svg">
<path d="M1.70947 13.6781C1.15719 13.6781 0.709473 13.2304 0.709473 12.6781V1.22583C0.709473 0.673545 1.15719 0.22583 1.70947 0.22583H2.76111C3.31339 0.22583 3.76111 0.673545 3.76111 1.22583V12.6781C3.76111 13.2304 3.31339 13.6781 2.76111 13.6781H1.70947ZM4.74917 7.45572C4.66999 7.24166 4.66642 7.00696 4.73905 6.79058L6.71375 0.907614C6.85047 0.500289 7.23211 0.22583 7.66176 0.22583H8.56458C9.24683 0.22583 9.72877 0.893971 9.51349 1.54137L7.76656 6.79487C7.69548 7.00864 7.69866 7.24014 7.77558 7.45187L9.55018 12.3367C9.78709 12.9888 9.30412 13.6781 8.61028 13.6781H7.74714C7.32865 13.6781 6.95442 13.4175 6.80924 13.0251L4.74917 7.45572Z" fill="#06331B"/>
<path d="M11.0114 12.3329C11.0114 11.7564 11.2928 11.3272 11.8555 11.0453C12.1008 10.93 12.3605 10.8724 12.6347 10.8724C13.2839 10.8724 13.7601 11.1222 14.0631 11.6219C14.1929 11.8396 14.2579 12.0767 14.2579 12.3329C14.2579 12.9222 13.9693 13.345 13.3921 13.6013C13.1469 13.7166 12.8944 13.7742 12.6347 13.7742C11.9709 13.7742 11.4948 13.518 11.2062 13.0055C11.0764 12.7877 11.0114 12.5635 11.0114 12.3329Z" fill="#06331B"/>
</svg>
