<svg width="74" height="84" viewBox="0 0 74 84" fill="none" xmlns="http://www.w3.org/2000/svg">
<rect x="20" y="1" width="34" height="54" rx="17" stroke="#F8F8FD" stroke-width="2"/>
<path d="M37 12L37 20" stroke="#A7DE93" stroke-width="2" stroke-linecap="round"/>
<path d="M23.3291 81.091C22.7311 81.091 22.1937 80.987 21.7171 80.779C21.2491 80.5623 20.8807 80.2677 20.6121 79.895C20.3434 79.5137 20.2047 79.076 20.1961 78.582H21.4571C21.5004 79.0067 21.6737 79.3663 21.9771 79.661C22.2891 79.947 22.7397 80.09 23.3291 80.09C23.8924 80.09 24.3344 79.9513 24.6551 79.674C24.9844 79.388 25.1491 79.024 25.1491 78.582C25.1491 78.2353 25.0537 77.9537 24.8631 77.737C24.6724 77.5203 24.4341 77.3557 24.1481 77.243C23.8621 77.1303 23.4764 77.009 22.9911 76.879C22.3931 76.723 21.9121 76.567 21.5481 76.411C21.1927 76.255 20.8851 76.0123 20.6251 75.683C20.3737 75.345 20.2481 74.8943 20.2481 74.331C20.2481 73.837 20.3737 73.3993 20.6251 73.018C20.8764 72.6367 21.2274 72.342 21.6781 72.134C22.1374 71.926 22.6617 71.822 23.2511 71.822C24.1004 71.822 24.7937 72.0343 25.3311 72.459C25.8771 72.8837 26.1847 73.447 26.2541 74.149H24.9541C24.9107 73.8023 24.7287 73.499 24.4081 73.239C24.0874 72.9703 23.6627 72.836 23.1341 72.836C22.6401 72.836 22.2371 72.966 21.9251 73.226C21.6131 73.4773 21.4571 73.8327 21.4571 74.292C21.4571 74.6213 21.5481 74.89 21.7301 75.098C21.9207 75.306 22.1504 75.4663 22.4191 75.579C22.6964 75.683 23.0821 75.8043 23.5761 75.943C24.1741 76.1077 24.6551 76.2723 25.0191 76.437C25.3831 76.593 25.6951 76.84 25.9551 77.178C26.2151 77.5073 26.3451 77.958 26.3451 78.53C26.3451 78.972 26.2281 79.388 25.9941 79.778C25.7601 80.168 25.4134 80.4843 24.9541 80.727C24.4947 80.9697 23.9531 81.091 23.3291 81.091ZM27.644 77.425C27.644 76.6883 27.7913 76.047 28.086 75.501C28.3806 74.9463 28.788 74.5173 29.308 74.214C29.8366 73.9107 30.439 73.759 31.115 73.759C31.9903 73.759 32.7096 73.9713 33.273 74.396C33.845 74.8207 34.222 75.41 34.404 76.164H33.13C33.0086 75.7307 32.7703 75.3883 32.415 75.137C32.0683 74.8857 31.635 74.76 31.115 74.76C30.439 74.76 29.893 74.994 29.477 75.462C29.061 75.9213 28.853 76.5757 28.853 77.425C28.853 78.283 29.061 78.946 29.477 79.414C29.893 79.882 30.439 80.116 31.115 80.116C31.635 80.116 32.0683 79.9947 32.415 79.752C32.7616 79.5093 33 79.1627 33.13 78.712H34.404C34.2133 79.44 33.832 80.025 33.26 80.467C32.688 80.9003 31.973 81.117 31.115 81.117C30.439 81.117 29.8366 80.9653 29.308 80.662C28.788 80.3587 28.3806 79.9297 28.086 79.375C27.7913 78.8203 27.644 78.1703 27.644 77.425ZM37.1654 75.033C37.3734 74.6257 37.6681 74.3093 38.0494 74.084C38.4394 73.8587 38.9118 73.746 39.4664 73.746V74.968H39.1544C37.8284 74.968 37.1654 75.6873 37.1654 77.126V81H35.9824V73.876H37.1654V75.033ZM43.9391 81.117C43.2717 81.117 42.6651 80.9653 42.1191 80.662C41.5817 80.3587 41.1571 79.9297 40.8451 79.375C40.5417 78.8117 40.3901 78.1617 40.3901 77.425C40.3901 76.697 40.5461 76.0557 40.8581 75.501C41.1787 74.9377 41.6121 74.5087 42.1581 74.214C42.7041 73.9107 43.3151 73.759 43.9911 73.759C44.6671 73.759 45.2781 73.9107 45.8241 74.214C46.3701 74.5087 46.7991 74.9333 47.1111 75.488C47.4317 76.0427 47.5921 76.6883 47.5921 77.425C47.5921 78.1617 47.4274 78.8117 47.0981 79.375C46.7774 79.9297 46.3397 80.3587 45.7851 80.662C45.2304 80.9653 44.6151 81.117 43.9391 81.117ZM43.9391 80.077C44.3637 80.077 44.7624 79.9773 45.1351 79.778C45.5077 79.5787 45.8067 79.2797 46.0321 78.881C46.2661 78.4823 46.3831 77.997 46.3831 77.425C46.3831 76.853 46.2704 76.3677 46.0451 75.969C45.8197 75.5703 45.5251 75.2757 45.1611 75.085C44.7971 74.8857 44.4027 74.786 43.9781 74.786C43.5447 74.786 43.1461 74.8857 42.7821 75.085C42.4267 75.2757 42.1407 75.5703 41.9241 75.969C41.7074 76.3677 41.5991 76.853 41.5991 77.425C41.5991 78.0057 41.7031 78.4953 41.9111 78.894C42.1277 79.2927 42.4137 79.5917 42.7691 79.791C43.1244 79.9817 43.5144 80.077 43.9391 80.077ZM50.3305 71.38V81H49.1475V71.38H50.3305ZM53.5297 71.38V81H52.3467V71.38H53.5297Z" fill="#F8F8FD"/>
</svg>
