<svg width="736" height="701" viewBox="0 0 736 701" fill="none" xmlns="http://www.w3.org/2000/svg">
<g filter="url(#filter0_f_28_107)">
<path d="M119 118.916H617.117L527.935 467.484L251.262 524.004L119 118.916Z" fill="url(#paint0_linear_28_107)"/>
</g>
<g filter="url(#filter1_f_28_107)">
<ellipse cx="370.708" cy="441.279" rx="144.842" ry="140.721" fill="url(#paint1_linear_28_107)"/>
</g>
<g opacity="0.4" filter="url(#filter2_f_28_107)">
<ellipse cx="370.708" cy="441.279" rx="132.772" ry="128.945" fill="url(#paint2_linear_28_107)"/>
</g>
<g opacity="0.3" filter="url(#filter3_f_28_107)">
<path d="M338.594 189.817C328.879 310.666 379.957 393.244 390.997 277.252C465.037 315.671 442.689 430.297 498.893 385.622C477.684 578.076 236.929 562.917 166.583 440.557C162.883 435.664 160.984 429.988 159.172 425.799C161.369 430.877 163.847 435.798 166.583 440.557C170.228 445.377 175.62 449.438 184.399 450.572C206.513 453.428 163.873 354.775 192.081 334.4C247.221 391.036 247.221 245.016 338.594 189.817Z" fill="url(#paint3_linear_28_107)"/>
</g>
<g filter="url(#filter4_f_28_107)">
<path d="M407.457 226.076C454.767 241.237 455.798 364.403 482.711 299.682C500.991 352.837 465.661 435.365 513.195 393.346C504.524 480.849 446.082 511.64 478.468 505.075C422.675 562.907 336.263 566.346 300.343 520.393C307.314 520.393 307.998 519.924 307.998 511.64C252.272 500.035 225.286 459.072 225.875 431.134C228.919 438.954 232.249 452.284 247.211 454.433C265.914 457.12 229.851 364.333 253.709 345.171C276.948 433.645 263.404 317.044 318.903 285.94C330.679 364.396 418.554 295.943 407.457 226.076Z" fill="url(#paint4_linear_28_107)"/>
</g>
<g opacity="0.3" filter="url(#filter5_f_28_107)">
<path d="M339.225 109C386.678 124.127 393.04 270.541 420.034 205.967C474.693 259.707 456.317 336.392 503.994 294.469C601.33 607.117 52.8374 623.862 190.343 251.352C213.652 339.625 200.067 223.289 255.733 192.256C244.796 275.18 352.362 234.907 339.225 109Z" fill="url(#paint5_linear_28_107)"/>
</g>
<g filter="url(#filter6_f_28_107)">
<path d="M263.996 239.3C249.695 315.569 327.576 284.143 322.681 169.488C367.628 201.633 389.525 258.32 411.793 279.76C425.261 292.728 470.839 279.65 453.144 231.148C499.117 278.194 468.197 347.223 513.134 307.04C517.607 601.714 135.362 582.248 202.278 295.873C218.323 375.714 212.506 269.831 263.996 239.3Z" fill="url(#paint6_radial_28_107)"/>
</g>
<g filter="url(#filter7_f_28_107)">
<path d="M339.386 244.851C373.436 255.129 397.478 329.318 416.847 285.446C456.068 321.958 443.822 392.491 478.033 364.008C547.875 576.426 154.307 587.803 252.973 334.713C267.99 448.876 266.225 322.954 306.167 301.869C311.869 364.008 373.349 307.075 339.386 244.851Z" fill="url(#paint7_linear_28_107)"/>
</g>
<g filter="url(#filter8_i_28_107)">
<path d="M362.66 335.628C362.353 346.821 351.667 355.309 346.362 358.154C362.353 362.895 394.135 369.532 393.336 358.154C392.336 343.931 388.108 326.248 375.653 311.718C365.246 299.576 342.825 296.188 328.449 306.49C316.947 314.731 316.686 332.219 317.993 339.933L340.288 333.321C335.829 328.093 337.751 316.561 346.362 315.408C354.972 314.255 363.045 321.635 362.66 335.628Z" fill="url(#paint8_radial_28_107)"/>
</g>
<g opacity="0.9" filter="url(#filter9_f_28_107)">
<path d="M383.188 352.003C383.7 346.75 383.188 332.937 377.037 319.713C381.753 325.889 389.584 340.994 383.188 352.003Z" fill="#E33F08"/>
</g>
<g opacity="0.4" filter="url(#filter10_f_28_107)">
<path d="M362.482 337.716C362.58 337.031 362.641 336.335 362.66 335.627C363.045 321.635 354.972 314.255 346.362 315.408C337.751 316.561 335.829 328.093 340.288 333.321L330.615 336.19C329.855 329.288 330.629 318.345 338.289 313.716C349.36 307.028 362.43 313.87 364.352 326.479C364.994 330.694 364.066 334.509 362.482 337.716Z" fill="url(#paint9_linear_28_107)"/>
</g>
<g opacity="0.5" filter="url(#filter11_f_28_107)">
<path d="M379.459 316.601C382.486 324.458 385.588 335.114 384.879 343.085C383.649 356.923 374.731 349.159 373.501 339.395C373.44 338.916 373.38 338.413 373.316 337.889C372.09 327.732 369.914 309.699 351.052 306.336C331.216 302.8 325.45 323.096 325.45 328.016C325.45 332.937 328.064 333.398 328.91 329.862C328.979 329.574 329.055 329.207 329.146 328.774C330.169 323.881 332.937 310.641 345.439 310.641C359.047 310.641 364.429 320.405 367.12 328.016C369.525 334.821 368.981 345.928 356.147 350.293C352.825 354.03 348.952 356.765 346.362 358.154C362.353 362.895 394.135 369.532 393.336 358.154C392.446 345.49 388.996 330.083 379.459 316.601Z" fill="url(#paint10_linear_28_107)"/>
</g>
<g opacity="0.6" filter="url(#filter12_f_28_107)">
<path d="M369.196 325.633C366.305 313.886 356.023 309.591 351.821 308.796C382.342 312.333 373.885 353.771 370.349 359.384C366.812 364.996 358.125 366.226 361.738 359.384C365.352 352.541 372.809 340.317 369.196 325.633Z" fill="#E33F08"/>
</g>
<g filter="url(#filter13_d_28_107)">
<mask id="mask0_28_107" style="mask-type:alpha" maskUnits="userSpaceOnUse" x="268" y="356" width="213" height="159">
<path d="M412.014 514.221H337.358C290.47 514.221 257.304 468.366 271.983 423.836C285.253 383.582 322.854 356.385 365.238 356.385H383.956C427.788 356.385 466.211 385.689 477.803 427.961C489.71 471.379 457.035 514.221 412.014 514.221Z" fill="#FF7F0A"/>
</mask>
<g mask="url(#mask0_28_107)">
<g filter="url(#filter14_i_28_107)">
<path d="M412.014 514.221H337.358C290.47 514.221 257.304 468.366 271.983 423.836C285.253 383.582 322.854 356.385 365.238 356.385H383.956C427.788 356.385 466.211 385.689 477.803 427.961C489.71 471.379 457.035 514.221 412.014 514.221Z" fill="url(#paint11_radial_28_107)"/>
</g>
<g filter="url(#filter15_ddi_28_107)">
<path d="M317.993 389.447C308.87 412.648 303.178 440.024 309.653 471.632C312.862 487.301 314.467 495.135 323.722 503.72C324.695 504.622 326.513 506.106 327.592 506.877C337.859 514.221 348.786 514.221 371.689 514.221C393.542 514.221 405.913 514.221 416.18 506.877C417.259 506.106 419.078 504.622 420.05 503.72C429.305 495.135 430.91 487.301 434.12 471.632C440.595 440.024 434.902 412.648 425.779 389.447C423.881 384.619 422.932 382.205 420.574 378.457C414.34 368.55 400.888 359.385 389.387 357.209C385.036 356.385 379.624 356.385 371.689 356.385C362.704 356.385 358.736 356.385 354.385 357.209C342.884 359.385 329.433 368.55 323.199 378.457C320.84 382.205 319.891 384.619 317.993 389.447Z" fill="url(#paint12_radial_28_107)"/>
</g>
<g filter="url(#filter16_f_28_107)">
<ellipse cx="368.314" cy="391.371" rx="74.9006" ry="27.0028" transform="rotate(1.0527 368.314 391.371)" fill="url(#paint13_linear_28_107)"/>
</g>
<g filter="url(#filter17_f_28_107)">
<ellipse cx="349.077" cy="398.786" rx="40.3606" ry="13.9923" transform="rotate(-71.0877 349.077 398.786)" fill="url(#paint14_linear_28_107)"/>
</g>
<g opacity="0.8" filter="url(#filter18_f_28_107)">
<path d="M329.283 512.176C270.059 501.228 269.544 448.848 270.059 426.193L243.265 444.29L249.597 515.394L329.283 546.28C349.539 540.918 379.145 521.394 329.283 512.176Z" fill="#FFE600"/>
</g>
<g opacity="0.5" filter="url(#filter19_f_28_107)">
<path d="M470.985 437.264H276.17C274.53 445.054 275.693 466.97 293.468 492.31C315.687 523.985 419.168 522.755 452.457 497.615C479.088 477.503 475.906 449.001 470.985 437.264Z" fill="url(#paint15_linear_28_107)"/>
</g>
<g filter="url(#filter20_f_28_107)">
<path d="M312.718 437.799C312.408 472.171 320.178 492.711 329.285 506.637C298.67 489.626 296.926 431.153 310.683 400.295C321.689 375.608 337.875 364.056 344.592 361.366C337.423 367.221 313.105 394.835 312.718 437.799Z" fill="#EC6830"/>
</g>
<g opacity="0.2" filter="url(#filter21_iif_28_107)">
<path d="M440.662 440.802C440.988 480.524 414.429 498.819 404.836 514.913C480.729 514.913 475.92 435.628 461.428 399.966C449.835 371.437 422.303 350.177 381.343 354.48C388.895 361.246 440.253 391.149 440.662 440.802Z" fill="#511F0E"/>
</g>
<g filter="url(#filter22_f_28_107)">
<path d="M433.023 438.906C433.31 472.558 426.109 492.668 417.67 506.302C453.386 489.202 450.17 431.918 437.421 401.706C427.221 377.537 409.709 366.707 403.484 364.073C410.128 369.806 432.664 396.842 433.023 438.906Z" fill="#67B108" fill-opacity="0.83"/>
</g>
</g>
</g>
<circle cx="329.396" cy="408.178" r="29.4944" fill="url(#paint16_linear_28_107)"/>
<path d="M354.015 391.93C349.617 388.404 344.034 386.295 337.959 386.295C323.771 386.295 312.27 397.796 312.27 411.983C312.27 424.764 321.604 435.365 333.827 437.342C332.382 437.559 330.902 437.672 329.396 437.672C313.107 437.672 299.902 424.467 299.902 408.178C299.902 391.888 313.107 378.683 329.396 378.683C339.681 378.683 348.737 383.948 354.015 391.93Z" fill="url(#paint17_linear_28_107)"/>
<circle cx="29.4944" cy="29.4944" r="29.4944" transform="matrix(-1 0 0 1 443.71 378.684)" fill="url(#paint18_linear_28_107)"/>
<path d="M389.597 391.93C393.995 388.404 399.578 386.295 405.653 386.295C419.841 386.295 431.342 397.796 431.342 411.983C431.342 424.764 422.008 435.365 409.785 437.341C411.23 437.559 412.71 437.672 414.216 437.672C430.505 437.672 443.71 424.467 443.71 408.178C443.71 391.888 430.505 378.683 414.216 378.683C403.931 378.683 394.875 383.948 389.597 391.93Z" fill="url(#paint19_linear_28_107)"/>
<g opacity="0.2" filter="url(#filter23_f_28_107)">
<ellipse cx="415.326" cy="408.743" rx="33.9575" ry="32.8064" transform="rotate(-113.587 415.326 408.743)" fill="#8EA826"/>
</g>
<path d="M364.674 425.048C367.604 419.227 375.915 419.227 378.846 425.048C381.501 430.324 377.666 436.548 371.76 436.548C365.853 436.548 362.019 430.324 364.674 425.048Z" fill="url(#paint20_linear_28_107)"/>
<path d="M366.745 428.527C368.783 424.276 374.835 424.276 376.873 428.527C378.661 432.255 375.944 436.572 371.809 436.572C367.675 436.572 364.957 432.255 366.745 428.527Z" fill="url(#paint21_linear_28_107)"/>
<path d="M336.367 477.933V454.331H407.097V477.933C413.318 476.546 426.168 469.937 432.277 454.331H445.922C434.175 496.585 398.564 501.766 371.732 501.766C344.901 501.766 309.29 496.585 297.542 454.331H311.187C317.297 469.937 330.146 476.546 336.367 477.933Z" fill="url(#paint22_linear_28_107)"/>
<path d="M336.367 477.895H342.377V454.331H336.367V477.895Z" fill="url(#paint23_linear_28_107)"/>
<path d="M401.087 454.331V477.895H407.097V454.331H401.087Z" fill="url(#paint24_linear_28_107)"/>
<path d="M433.314 454.331C421.474 494.386 394.004 494.386 371.732 494.386C349.461 494.386 318.685 487.588 310.151 454.331H297.542C309.29 496.585 344.901 501.766 371.732 501.766C398.564 501.766 434.175 496.585 445.922 454.331H433.314Z" fill="url(#paint25_linear_28_107)"/>
<g opacity="0.6" filter="url(#filter24_f_28_107)">
<ellipse cx="371.862" cy="517.793" rx="90.7327" ry="16.1137" fill="url(#paint26_linear_28_107)"/>
</g>
<defs>
<filter id="filter0_f_28_107" x="0.246017" y="0.162155" width="735.625" height="642.596" filterUnits="userSpaceOnUse" color-interpolation-filters="sRGB">
<feFlood flood-opacity="0" result="BackgroundImageFix"/>
<feBlend mode="normal" in="SourceGraphic" in2="BackgroundImageFix" result="shape"/>
<feGaussianBlur stdDeviation="59.377" result="effect1_foregroundBlur_28_107"/>
</filter>
<filter id="filter1_f_28_107" x="107.112" y="181.804" width="527.193" height="518.95" filterUnits="userSpaceOnUse" color-interpolation-filters="sRGB">
<feFlood flood-opacity="0" result="BackgroundImageFix"/>
<feBlend mode="normal" in="SourceGraphic" in2="BackgroundImageFix" result="shape"/>
<feGaussianBlur stdDeviation="59.377" result="effect1_foregroundBlur_28_107"/>
</filter>
<filter id="filter2_f_28_107" x="119.182" y="193.58" width="503.053" height="495.398" filterUnits="userSpaceOnUse" color-interpolation-filters="sRGB">
<feFlood flood-opacity="0" result="BackgroundImageFix"/>
<feBlend mode="normal" in="SourceGraphic" in2="BackgroundImageFix" result="shape"/>
<feGaussianBlur stdDeviation="59.377" result="effect1_foregroundBlur_28_107"/>
</filter>
<filter id="filter3_f_28_107" x="46.3552" y="77.0003" width="565.354" height="567.435" filterUnits="userSpaceOnUse" color-interpolation-filters="sRGB">
<feFlood flood-opacity="0" result="BackgroundImageFix"/>
<feBlend mode="normal" in="SourceGraphic" in2="BackgroundImageFix" result="shape"/>
<feGaussianBlur stdDeviation="56.4081" result="effect1_foregroundBlur_28_107"/>
</filter>
<filter id="filter4_f_28_107" x="178.364" y="178.574" width="382.333" height="420.899" filterUnits="userSpaceOnUse" color-interpolation-filters="sRGB">
<feFlood flood-opacity="0" result="BackgroundImageFix"/>
<feBlend mode="normal" in="SourceGraphic" in2="BackgroundImageFix" result="shape"/>
<feGaussianBlur stdDeviation="23.7508" result="effect1_foregroundBlur_28_107"/>
</filter>
<filter id="filter5_f_28_107" x="122.583" y="63.4985" width="438.564" height="511.943" filterUnits="userSpaceOnUse" color-interpolation-filters="sRGB">
<feFlood flood-opacity="0" result="BackgroundImageFix"/>
<feBlend mode="normal" in="SourceGraphic" in2="BackgroundImageFix" result="shape"/>
<feGaussianBlur stdDeviation="22.7507" result="effect1_foregroundBlur_28_107"/>
</filter>
<filter id="filter6_f_28_107" x="169.414" y="144.488" width="368.759" height="400.013" filterUnits="userSpaceOnUse" color-interpolation-filters="sRGB">
<feFlood flood-opacity="0" result="BackgroundImageFix"/>
<feBlend mode="normal" in="SourceGraphic" in2="BackgroundImageFix" result="shape"/>
<feGaussianBlur stdDeviation="12.5" result="effect1_foregroundBlur_28_107"/>
</filter>
<filter id="filter7_f_28_107" x="192.002" y="199.851" width="339.391" height="369.139" filterUnits="userSpaceOnUse" color-interpolation-filters="sRGB">
<feFlood flood-opacity="0" result="BackgroundImageFix"/>
<feBlend mode="normal" in="SourceGraphic" in2="BackgroundImageFix" result="shape"/>
<feGaussianBlur stdDeviation="22.5" result="effect1_foregroundBlur_28_107"/>
</filter>
<filter id="filter8_i_28_107" x="307.222" y="292.521" width="86.1281" height="71.9155" filterUnits="userSpaceOnUse" color-interpolation-filters="sRGB">
<feFlood flood-opacity="0" result="BackgroundImageFix"/>
<feBlend mode="normal" in="SourceGraphic" in2="BackgroundImageFix" result="shape"/>
<feColorMatrix in="SourceAlpha" type="matrix" values="0 0 0 0 0 0 0 0 0 0 0 0 0 0 0 0 0 0 127 0" result="hardAlpha"/>
<feOffset dx="-10.2341" dy="-7.86089"/>
<feGaussianBlur stdDeviation="14.2657"/>
<feComposite in2="hardAlpha" operator="arithmetic" k2="-1" k3="1"/>
<feColorMatrix type="matrix" values="0 0 0 0 0.68 0 0 0 0 1 0 0 0 0 0 0 0 0 0.31 0"/>
<feBlend mode="normal" in2="shape" result="effect1_innerShadow_28_107"/>
</filter>
<filter id="filter9_f_28_107" x="368.044" y="310.72" width="26.5484" height="50.277" filterUnits="userSpaceOnUse" color-interpolation-filters="sRGB">
<feFlood flood-opacity="0" result="BackgroundImageFix"/>
<feBlend mode="normal" in="SourceGraphic" in2="BackgroundImageFix" result="shape"/>
<feGaussianBlur stdDeviation="4.49678" result="effect1_foregroundBlur_28_107"/>
</filter>
<filter id="filter10_f_28_107" x="316.119" y="296.839" width="62.7044" height="55.1425" filterUnits="userSpaceOnUse" color-interpolation-filters="sRGB">
<feFlood flood-opacity="0" result="BackgroundImageFix"/>
<feBlend mode="normal" in="SourceGraphic" in2="BackgroundImageFix" result="shape"/>
<feGaussianBlur stdDeviation="7.13283" result="effect1_foregroundBlur_28_107"/>
</filter>
<filter id="filter11_f_28_107" x="311.185" y="291.659" width="96.4317" height="87.0427" filterUnits="userSpaceOnUse" color-interpolation-filters="sRGB">
<feFlood flood-opacity="0" result="BackgroundImageFix"/>
<feBlend mode="normal" in="SourceGraphic" in2="BackgroundImageFix" result="shape"/>
<feGaussianBlur stdDeviation="7.13283" result="effect1_foregroundBlur_28_107"/>
</filter>
<filter id="filter12_f_28_107" x="338.795" y="295.771" width="48.3863" height="81.3196" filterUnits="userSpaceOnUse" color-interpolation-filters="sRGB">
<feFlood flood-opacity="0" result="BackgroundImageFix"/>
<feBlend mode="normal" in="SourceGraphic" in2="BackgroundImageFix" result="shape"/>
<feGaussianBlur stdDeviation="6.51258" result="effect1_foregroundBlur_28_107"/>
</filter>
<filter id="filter13_d_28_107" x="223.503" y="312.658" width="301.736" height="247.771" filterUnits="userSpaceOnUse" color-interpolation-filters="sRGB">
<feFlood flood-opacity="0" result="BackgroundImageFix"/>
<feColorMatrix in="SourceAlpha" type="matrix" values="0 0 0 0 0 0 0 0 0 0 0 0 0 0 0 0 0 0 127 0" result="hardAlpha"/>
<feOffset dy="1.24049"/>
<feGaussianBlur stdDeviation="22.4839"/>
<feColorMatrix type="matrix" values="0 0 0 0 1 0 0 0 0 0.54 0 0 0 0 0 0 0 0 0.5 0"/>
<feBlend mode="normal" in2="BackgroundImageFix" result="effect1_dropShadow_28_107"/>
<feBlend mode="normal" in="SourceGraphic" in2="effect1_dropShadow_28_107" result="shape"/>
</filter>
<filter id="filter14_i_28_107" x="240.25" y="331.265" width="240.021" height="182.956" filterUnits="userSpaceOnUse" color-interpolation-filters="sRGB">
<feFlood flood-opacity="0" result="BackgroundImageFix"/>
<feBlend mode="normal" in="SourceGraphic" in2="BackgroundImageFix" result="shape"/>
<feColorMatrix in="SourceAlpha" type="matrix" values="0 0 0 0 0 0 0 0 0 0 0 0 0 0 0 0 0 0 127 0" result="hardAlpha"/>
<feOffset dx="-30.0819" dy="-25.12"/>
<feGaussianBlur stdDeviation="14.1106"/>
<feComposite in2="hardAlpha" operator="arithmetic" k2="-1" k3="1"/>
<feColorMatrix type="matrix" values="0 0 0 0 0.0599132 0 0 0 0 0.845833 0 0 0 0 0.138505 0 0 0 0.81 0"/>
<feBlend mode="normal" in2="shape" result="effect1_innerShadow_28_107"/>
</filter>
<filter id="filter15_ddi_28_107" x="245.16" y="330.335" width="192.979" height="203.114" filterUnits="userSpaceOnUse" color-interpolation-filters="sRGB">
<feFlood flood-opacity="0" result="BackgroundImageFix"/>
<feColorMatrix in="SourceAlpha" type="matrix" values="0 0 0 0 0 0 0 0 0 0 0 0 0 0 0 0 0 0 127 0" result="hardAlpha"/>
<feOffset dx="-39.0755" dy="-3.41135"/>
<feGaussianBlur stdDeviation="11.3195"/>
<feColorMatrix type="matrix" values="0 0 0 0 1 0 0 0 0 0.54 0 0 0 0 0 0 0 0 1 0"/>
<feBlend mode="normal" in2="BackgroundImageFix" result="effect1_dropShadow_28_107"/>
<feColorMatrix in="SourceAlpha" type="matrix" values="0 0 0 0 0 0 0 0 0 0 0 0 0 0 0 0 0 0 127 0" result="hardAlpha"/>
<feOffset dy="1.24049"/>
<feGaussianBlur stdDeviation="0.620246"/>
<feColorMatrix type="matrix" values="0 0 0 0 0 0 0 0 0 0 0 0 0 0 0 0 0 0 0.25 0"/>
<feBlend mode="normal" in2="effect1_dropShadow_28_107" result="effect2_dropShadow_28_107"/>
<feBlend mode="normal" in="SourceGraphic" in2="effect2_dropShadow_28_107" result="shape"/>
<feColorMatrix in="SourceAlpha" type="matrix" values="0 0 0 0 0 0 0 0 0 0 0 0 0 0 0 0 0 0 127 0" result="hardAlpha"/>
<feOffset dx="-26.0503" dy="-10.2341"/>
<feGaussianBlur stdDeviation="7.86089"/>
<feComposite in2="hardAlpha" operator="arithmetic" k2="-1" k3="1"/>
<feColorMatrix type="matrix" values="0 0 0 0 0.933375 0 0 0 0 0.95 0 0 0 0 0.11875 0 0 0 0.75 0"/>
<feBlend mode="normal" in2="shape" result="effect3_innerShadow_28_107"/>
</filter>
<filter id="filter16_f_28_107" x="252.154" y="323.067" width="232.32" height="136.608" filterUnits="userSpaceOnUse" color-interpolation-filters="sRGB">
<feFlood flood-opacity="0" result="BackgroundImageFix"/>
<feBlend mode="normal" in="SourceGraphic" in2="BackgroundImageFix" result="shape"/>
<feGaussianBlur stdDeviation="20.6351" result="effect1_foregroundBlur_28_107"/>
</filter>
<filter id="filter17_f_28_107" x="289.197" y="319.062" width="119.761" height="159.448" filterUnits="userSpaceOnUse" color-interpolation-filters="sRGB">
<feFlood flood-opacity="0" result="BackgroundImageFix"/>
<feBlend mode="normal" in="SourceGraphic" in2="BackgroundImageFix" result="shape"/>
<feGaussianBlur stdDeviation="20.6351" result="effect1_foregroundBlur_28_107"/>
</filter>
<filter id="filter18_f_28_107" x="227.139" y="410.066" width="145.649" height="152.34" filterUnits="userSpaceOnUse" color-interpolation-filters="sRGB">
<feFlood flood-opacity="0" result="BackgroundImageFix"/>
<feBlend mode="normal" in="SourceGraphic" in2="BackgroundImageFix" result="shape"/>
<feGaussianBlur stdDeviation="8.06319" result="effect1_foregroundBlur_28_107"/>
</filter>
<filter id="filter19_f_28_107" x="229.114" y="390.745" width="291.718" height="172.069" filterUnits="userSpaceOnUse" color-interpolation-filters="sRGB">
<feFlood flood-opacity="0" result="BackgroundImageFix"/>
<feBlend mode="normal" in="SourceGraphic" in2="BackgroundImageFix" result="shape"/>
<feGaussianBlur stdDeviation="23.2592" result="effect1_foregroundBlur_28_107"/>
</filter>
<filter id="filter20_f_28_107" x="289.423" y="348.341" width="68.1939" height="171.322" filterUnits="userSpaceOnUse" color-interpolation-filters="sRGB">
<feFlood flood-opacity="0" result="BackgroundImageFix"/>
<feBlend mode="normal" in="SourceGraphic" in2="BackgroundImageFix" result="shape"/>
<feGaussianBlur stdDeviation="6.51258" result="effect1_foregroundBlur_28_107"/>
</filter>
<filter id="filter21_iif_28_107" x="366.767" y="339.349" width="117.872" height="190.139" filterUnits="userSpaceOnUse" color-interpolation-filters="sRGB">
<feFlood flood-opacity="0" result="BackgroundImageFix"/>
<feBlend mode="normal" in="SourceGraphic" in2="BackgroundImageFix" result="shape"/>
<feColorMatrix in="SourceAlpha" type="matrix" values="0 0 0 0 0 0 0 0 0 0 0 0 0 0 0 0 0 0 127 0" result="hardAlpha"/>
<feOffset dy="1.24049"/>
<feGaussianBlur stdDeviation="0.620246"/>
<feComposite in2="hardAlpha" operator="arithmetic" k2="-1" k3="1"/>
<feColorMatrix type="matrix" values="0 0 0 0 0.425 0 0 0 0 0.189267 0 0 0 0 0.0566667 0 0 0 0.5 0"/>
<feBlend mode="normal" in2="shape" result="effect1_innerShadow_28_107"/>
<feColorMatrix in="SourceAlpha" type="matrix" values="0 0 0 0 0 0 0 0 0 0 0 0 0 0 0 0 0 0 127 0" result="hardAlpha"/>
<feOffset dx="21.0884" dy="6.51258"/>
<feGaussianBlur stdDeviation="0.620246"/>
<feComposite in2="hardAlpha" operator="arithmetic" k2="-1" k3="1"/>
<feColorMatrix type="matrix" values="0 0 0 0 0 0 0 0 0 0 0 0 0 0 0 0 0 0 0.25 0"/>
<feBlend mode="normal" in2="effect1_innerShadow_28_107" result="effect2_innerShadow_28_107"/>
<feGaussianBlur stdDeviation="7.28789" result="effect3_foregroundBlur_28_107"/>
</filter>
<filter id="filter22_f_28_107" x="390.459" y="351.048" width="68.8349" height="168.279" filterUnits="userSpaceOnUse" color-interpolation-filters="sRGB">
<feFlood flood-opacity="0" result="BackgroundImageFix"/>
<feBlend mode="normal" in="SourceGraphic" in2="BackgroundImageFix" result="shape"/>
<feGaussianBlur stdDeviation="6.51258" result="effect1_foregroundBlur_28_107"/>
</filter>
<filter id="filter23_f_28_107" x="358.491" y="351.124" width="113.671" height="115.237" filterUnits="userSpaceOnUse" color-interpolation-filters="sRGB">
<feFlood flood-opacity="0" result="BackgroundImageFix"/>
<feBlend mode="normal" in="SourceGraphic" in2="BackgroundImageFix" result="shape"/>
<feGaussianBlur stdDeviation="11.9169" result="effect1_foregroundBlur_28_107"/>
</filter>
<filter id="filter24_f_28_107" x="241.201" y="461.751" width="261.322" height="112.084" filterUnits="userSpaceOnUse" color-interpolation-filters="sRGB">
<feFlood flood-opacity="0" result="BackgroundImageFix"/>
<feBlend mode="normal" in="SourceGraphic" in2="BackgroundImageFix" result="shape"/>
<feGaussianBlur stdDeviation="19.9641" result="effect1_foregroundBlur_28_107"/>
</filter>
<linearGradient id="paint0_linear_28_107" x1="471.323" y1="148.886" x2="401.244" y2="452.49" gradientUnits="userSpaceOnUse">
<stop stop-color="#B9FF8D" stop-opacity="0"/>
<stop offset="0.50718" stop-color="#46FF85" stop-opacity="0.12"/>
<stop offset="1" stop-color="#FFE600" stop-opacity="0"/>
</linearGradient>
<linearGradient id="paint1_linear_28_107" x1="370.708" y1="300.558" x2="370.708" y2="582" gradientUnits="userSpaceOnUse">
<stop stop-color="#50FF76" stop-opacity="0.38"/>
<stop offset="1" stop-color="#50FFA0" stop-opacity="0"/>
</linearGradient>
<linearGradient id="paint2_linear_28_107" x1="370.708" y1="312.334" x2="370.708" y2="433.446" gradientUnits="userSpaceOnUse">
<stop stop-color="#FFFACE"/>
<stop offset="1" stop-color="white" stop-opacity="0"/>
</linearGradient>
<linearGradient id="paint3_linear_28_107" x1="329.725" y1="222.437" x2="329.725" y2="563.497" gradientUnits="userSpaceOnUse">
<stop stop-color="#A6FFEA" stop-opacity="0.95"/>
<stop offset="1" stop-color="#F6EB4E" stop-opacity="0"/>
</linearGradient>
<linearGradient id="paint4_linear_28_107" x1="475.071" y1="269.647" x2="370.122" y2="560.643" gradientUnits="userSpaceOnUse">
<stop stop-color="#FFFBA0" stop-opacity="0.15"/>
<stop offset="1" stop-color="#3AFFE7" stop-opacity="0.06"/>
</linearGradient>
<linearGradient id="paint5_linear_28_107" x1="191.114" y1="216.678" x2="396.333" y2="441.28" gradientUnits="userSpaceOnUse">
<stop stop-color="#FDEE67" stop-opacity="0.49"/>
<stop offset="1" stop-color="#44FFE9" stop-opacity="0.29"/>
</linearGradient>
<radialGradient id="paint6_radial_28_107" cx="0" cy="0" r="1" gradientUnits="userSpaceOnUse" gradientTransform="translate(395.591 312.258) rotate(178.317) scale(110.961 176.057)">
<stop stop-color="#EDFFA4" stop-opacity="0.3"/>
<stop offset="1" stop-color="#B2FF50" stop-opacity="0.04"/>
</radialGradient>
<linearGradient id="paint7_linear_28_107" x1="253.527" y1="311.155" x2="392.068" y2="471.291" gradientUnits="userSpaceOnUse">
<stop stop-color="#FEFFD2" stop-opacity="0.31"/>
<stop offset="1" stop-color="#B2FF50" stop-opacity="0.1"/>
</linearGradient>
<radialGradient id="paint8_radial_28_107" cx="0" cy="0" r="1" gradientUnits="userSpaceOnUse" gradientTransform="translate(329.47 297.902) rotate(70.119) scale(72.7814 62.649)">
<stop stop-color="#E8F360"/>
<stop offset="0.420971" stop-color="#F7B34E" stop-opacity="0.990923"/>
<stop offset="0.829897" stop-color="#FFA843"/>
<stop offset="1" stop-color="#89F235"/>
</radialGradient>
<linearGradient id="paint9_linear_28_107" x1="347.471" y1="311.105" x2="347.471" y2="337.716" gradientUnits="userSpaceOnUse">
<stop stop-color="#9E4722"/>
<stop offset="1" stop-color="#BB391C" stop-opacity="0.87"/>
</linearGradient>
<linearGradient id="paint10_linear_28_107" x1="359.4" y1="305.925" x2="359.4" y2="364.436" gradientUnits="userSpaceOnUse">
<stop stop-color="#9E4722"/>
<stop offset="1" stop-color="#BB391C" stop-opacity="0.87"/>
</linearGradient>
<radialGradient id="paint11_radial_28_107" cx="0" cy="0" r="1" gradientUnits="userSpaceOnUse" gradientTransform="translate(371.824 378.714) rotate(64.8675) scale(149.515 178.359)">
<stop stop-color="#F1A42F"/>
<stop offset="0.420971" stop-color="#FCDB69" stop-opacity="0.990923"/>
<stop offset="0.829897" stop-color="#F8B147" stop-opacity="0.77"/>
<stop offset="1" stop-color="#EEAF4F"/>
</radialGradient>
<radialGradient id="paint12_radial_28_107" cx="0" cy="0" r="1" gradientUnits="userSpaceOnUse" gradientTransform="translate(371.886 378.714) rotate(90.8281) scale(140.228 83.943)">
<stop stop-color="#F38B2C"/>
<stop offset="0.420971" stop-color="#FFA681" stop-opacity="0.990923"/>
<stop offset="0.829897" stop-color="#F79A10" stop-opacity="0.77"/>
</radialGradient>
<linearGradient id="paint13_linear_28_107" x1="303.339" y1="375.804" x2="318.237" y2="427.515" gradientUnits="userSpaceOnUse">
<stop stop-color="#FFEB37" stop-opacity="0.71"/>
<stop offset="1" stop-color="#FF7C02" stop-opacity="0.7"/>
</linearGradient>
<linearGradient id="paint14_linear_28_107" x1="314.065" y1="390.719" x2="321.531" y2="417.67" gradientUnits="userSpaceOnUse">
<stop stop-color="white"/>
<stop offset="1" stop-color="#FFFFF8" stop-opacity="0.7"/>
</linearGradient>
<linearGradient id="paint15_linear_28_107" x1="374.973" y1="437.264" x2="374.973" y2="516.296" gradientUnits="userSpaceOnUse">
<stop stop-color="#F8A120"/>
<stop offset="1" stop-color="#A5BB1C" stop-opacity="0.87"/>
</linearGradient>
<linearGradient id="paint16_linear_28_107" x1="329.396" y1="378.683" x2="329.396" y2="437.672" gradientUnits="userSpaceOnUse">
<stop stop-color="#27613E"/>
<stop offset="1" stop-color="#1B213F"/>
</linearGradient>
<linearGradient id="paint17_linear_28_107" x1="340.212" y1="383.909" x2="331.985" y2="441.415" gradientUnits="userSpaceOnUse">
<stop stop-color="#AF6E31"/>
<stop offset="0.558371" stop-color="#E45314" stop-opacity="0.990923"/>
<stop offset="1" stop-color="#FFC700"/>
</linearGradient>
<linearGradient id="paint18_linear_28_107" x1="29.4944" y1="0" x2="29.4944" y2="58.9887" gradientUnits="userSpaceOnUse">
<stop stop-color="#27613E"/>
<stop offset="1" stop-color="#1B213F"/>
</linearGradient>
<linearGradient id="paint19_linear_28_107" x1="429.907" y1="383.908" x2="421.68" y2="441.415" gradientUnits="userSpaceOnUse">
<stop stop-color="#9C500A"/>
<stop offset="0.558371" stop-color="#E45314" stop-opacity="0.990923"/>
<stop offset="1" stop-color="#FFC700"/>
</linearGradient>
<linearGradient id="paint20_linear_28_107" x1="373.472" y1="425.731" x2="376.025" y2="442.759" gradientUnits="userSpaceOnUse">
<stop stop-color="#9C500A"/>
<stop offset="1" stop-color="#FF2E00"/>
</linearGradient>
<linearGradient id="paint21_linear_28_107" x1="371.809" y1="417.966" x2="371.809" y2="436.572" gradientUnits="userSpaceOnUse">
<stop stop-color="#1D2B3F"/>
<stop offset="1" stop-color="#1A4A33"/>
</linearGradient>
<linearGradient id="paint22_linear_28_107" x1="419.211" y1="487.797" x2="371.732" y2="501.766" gradientUnits="userSpaceOnUse">
<stop stop-color="#27613E"/>
<stop offset="1" stop-color="#1B213F"/>
</linearGradient>
<linearGradient id="paint23_linear_28_107" x1="414.749" y1="450.363" x2="410.163" y2="506.78" gradientUnits="userSpaceOnUse">
<stop stop-color="#225321"/>
<stop offset="0.558371" stop-color="#E46C14" stop-opacity="0.990923"/>
<stop offset="1" stop-color="#FFC700"/>
</linearGradient>
<linearGradient id="paint24_linear_28_107" x1="414.749" y1="450.363" x2="410.163" y2="506.78" gradientUnits="userSpaceOnUse">
<stop stop-color="#225321"/>
<stop offset="0.558371" stop-color="#E46C14" stop-opacity="0.990923"/>
<stop offset="1" stop-color="#FFC700"/>
</linearGradient>
<linearGradient id="paint25_linear_28_107" x1="414.749" y1="450.363" x2="410.163" y2="506.78" gradientUnits="userSpaceOnUse">
<stop stop-color="#225321"/>
<stop offset="0.558371" stop-color="#E46C14" stop-opacity="0.990923"/>
<stop offset="1" stop-color="#FFC700"/>
</linearGradient>
<linearGradient id="paint26_linear_28_107" x1="371.862" y1="501.679" x2="371.862" y2="533.907" gradientUnits="userSpaceOnUse">
<stop/>
<stop offset="1" stop-color="#151433" stop-opacity="0.87"/>
<stop offset="1" stop-color="#251F27" stop-opacity="0.87"/>
</linearGradient>
</defs>
</svg>
