<svg width="1023" height="800" viewBox="0 0 1023 800" fill="none" xmlns="http://www.w3.org/2000/svg">
<g filter="url(#filter0_f_0_17)">
<path d="M119 -206H1123.66L943.787 497.031L385.761 611.027L119 -206Z" fill="url(#paint0_linear_0_17)"/>
</g>
<g filter="url(#filter1_f_0_17)">
<ellipse cx="626.673" cy="444.178" rx="292.135" ry="283.822" fill="url(#paint1_linear_0_17)"/>
</g>
<g opacity="0.4" filter="url(#filter2_f_0_17)">
<ellipse cx="626.673" cy="444.178" rx="267.79" ry="260.071" fill="url(#paint2_linear_0_17)"/>
</g>
<g opacity="0.3" filter="url(#filter3_f_0_17)">
<path d="M561.903 -63C542.308 180.743 645.327 347.295 667.594 113.35C816.927 190.837 771.852 422.029 885.211 331.922C842.435 720.086 356.854 689.512 214.971 442.722C207.509 432.852 203.679 421.405 200.023 412.957C204.455 423.197 209.453 433.123 214.971 442.722C222.322 452.443 233.198 460.634 250.904 462.921C295.506 468.682 209.505 269.706 266.399 228.613C377.611 342.842 377.611 48.3318 561.903 -63Z" fill="url(#paint3_linear_0_17)"/>
</g>
<g filter="url(#filter4_f_0_17)">
<path d="M700.792 10.1322C796.213 40.7112 798.292 289.127 852.573 158.589C889.443 265.798 818.185 432.249 914.058 347.501C896.569 523.986 778.696 586.09 844.016 572.85C731.487 689.491 557.2 696.427 484.754 603.744C498.813 603.744 500.193 602.798 500.193 586.09C387.798 562.684 333.369 480.065 334.558 423.716C340.696 439.489 347.413 466.375 377.591 470.709C415.313 476.127 342.577 288.985 390.696 250.336C437.567 428.781 410.251 193.606 522.186 130.872C545.939 289.112 723.173 151.048 700.792 10.1322Z" fill="url(#paint4_linear_0_17)"/>
</g>
<g opacity="0.3" filter="url(#filter5_f_0_17)">
<path d="M563.176 -226C658.884 -195.491 671.714 99.8135 726.159 -30.4269C836.402 77.9628 799.339 232.63 895.5 148.075C1091.82 778.659 -14.444 812.433 262.892 61.1113C309.904 239.151 282.506 4.51082 394.778 -58.0807C372.719 109.171 589.67 27.9436 563.176 -226Z" fill="url(#paint5_linear_0_17)"/>
</g>
<g filter="url(#filter6_f_0_17)">
<path d="M411.444 36.803C382.601 190.631 539.679 127.249 529.807 -104C620.46 -39.1673 664.625 75.1655 709.537 118.409C736.701 144.563 828.63 118.187 792.94 20.3618C885.663 115.25 823.301 254.476 913.934 173.43C922.957 767.761 152 728.5 286.964 150.907C319.326 311.939 307.594 98.3813 411.444 36.803Z" fill="url(#paint6_radial_0_17)"/>
</g>
<g filter="url(#filter7_f_0_17)">
<path d="M563.5 48C632.175 68.7286 680.665 218.363 719.732 129.876C798.836 203.517 774.137 345.776 843.138 288.328C984.005 716.757 190.211 739.704 389.212 229.243C419.5 459.5 415.939 205.526 496.5 163C508 288.328 632 173.5 563.5 48Z" fill="url(#paint7_linear_0_17)"/>
</g>
<g filter="url(#filter8_i_0_17)">
<path d="M610.442 231.088C609.822 253.665 588.268 270.784 577.569 276.521C609.822 286.083 673.924 299.47 672.312 276.521C670.296 247.835 661.768 212.171 636.648 182.864C615.658 158.376 570.436 151.542 541.44 172.32C518.243 188.942 517.716 224.214 520.352 239.772L565.319 226.436C556.326 215.892 560.202 192.633 577.569 190.307C594.936 187.981 611.218 202.867 610.442 231.088Z" fill="url(#paint8_radial_0_17)"/>
</g>
<g opacity="0.9" filter="url(#filter9_f_0_17)">
<path d="M651.844 264.116C652.877 253.52 651.844 225.661 639.439 198.991C648.949 211.447 664.745 241.912 651.844 264.116Z" fill="#E33F08"/>
</g>
<g opacity="0.4" filter="url(#filter10_f_0_17)">
<path d="M610.082 235.3C610.28 233.919 610.403 232.514 610.442 231.088C611.217 202.867 594.936 187.981 577.569 190.307C560.202 192.633 556.326 215.892 565.319 226.436L545.809 232.222C544.276 218.303 545.837 196.23 561.288 186.895C583.616 173.405 609.977 187.205 613.853 212.636C615.149 221.137 613.277 228.833 610.082 235.3Z" fill="url(#paint9_linear_0_17)"/>
</g>
<g opacity="0.5" filter="url(#filter11_f_0_17)">
<path d="M644.324 192.713C650.428 208.561 656.684 230.051 655.255 246.129C652.774 274.04 634.787 258.379 632.306 238.686C632.184 237.72 632.062 236.706 631.934 235.65C629.462 215.163 625.072 178.793 587.028 172.01C547.022 164.877 535.393 205.813 535.393 215.737C535.393 225.661 540.665 226.591 542.37 219.459C542.509 218.879 542.664 218.138 542.846 217.266C544.91 207.396 550.492 180.693 575.708 180.693C603.154 180.693 614.009 200.386 619.436 215.737C624.288 229.462 623.191 251.864 597.304 260.667C590.605 268.205 582.793 273.72 577.569 276.521C609.822 286.083 673.924 299.47 672.312 276.521C670.517 250.979 663.559 219.906 644.324 192.713Z" fill="url(#paint10_linear_0_17)"/>
</g>
<g opacity="0.6" filter="url(#filter12_f_0_17)">
<path d="M623.623 210.93C617.793 187.237 597.056 178.574 588.579 176.972C650.138 184.104 633.082 267.683 625.949 279.002C618.816 290.321 601.294 292.802 608.582 279.002C615.87 265.202 630.911 240.547 623.623 210.93Z" fill="#E33F08"/>
</g>
<g filter="url(#filter13_d_0_17)">
<mask id="mask0_0_17" style="mask-type:alpha" maskUnits="userSpaceOnUse" x="413" y="272" width="441" height="320">
<path d="M709.983 591.296H559.409C536.02 591.296 524.326 591.296 515.479 589.969C449.02 579.999 403.724 517.373 415.061 451.134C416.57 442.316 420.232 431.21 427.554 408.997L427.554 408.996C433.389 391.296 436.306 382.446 439.73 374.72C464.684 318.408 517.983 279.857 579.276 273.787C587.686 272.955 597.004 272.955 615.642 272.955H653.394C671.68 272.955 680.823 272.955 689 273.742C753.75 279.974 809.364 322.389 832.499 383.186C835.421 390.863 837.839 399.68 842.674 417.314L842.675 417.316C848.191 437.431 850.95 447.489 852.022 455.548C860.739 521.061 814.812 581.279 749.326 590.198C741.271 591.296 730.841 591.296 709.983 591.296Z" fill="#FF7F0A"/>
</mask>
<g mask="url(#mask0_0_17)">
<g filter="url(#filter14_i_0_17)">
<path d="M709.983 591.296H559.409C536.02 591.296 524.326 591.296 515.479 589.969C449.02 579.999 403.724 517.373 415.061 451.134C416.57 442.316 420.232 431.21 427.554 408.997L427.554 408.996C433.389 391.296 436.306 382.446 439.73 374.72C464.684 318.408 517.983 279.857 579.276 273.787C587.686 272.955 597.004 272.955 615.642 272.955H653.394C671.68 272.955 680.823 272.955 689 273.742C753.75 279.974 809.364 322.389 832.499 383.186C835.421 390.863 837.839 399.68 842.674 417.314L842.675 417.316C848.191 437.431 850.95 447.489 852.022 455.548C860.739 521.061 814.812 581.279 749.326 590.198C741.271 591.296 730.841 591.296 709.983 591.296Z" fill="url(#paint11_radial_0_17)"/>
</g>
<g filter="url(#filter15_ddi_0_17)">
<path d="M520.351 339.636C501.951 386.432 490.47 441.646 503.53 505.397C510.004 537 513.241 552.801 531.907 570.116C533.868 571.936 537.536 574.928 539.711 576.484C560.42 591.296 582.458 591.296 628.652 591.296C672.727 591.296 697.678 591.296 718.387 576.484C720.563 574.928 724.23 571.936 726.191 570.116C744.858 552.801 748.095 537 754.569 505.397C767.628 441.646 756.147 386.432 737.747 339.636C733.919 329.899 732.004 325.031 727.248 317.471C714.674 297.489 687.544 279.005 664.347 274.615C655.572 272.955 644.656 272.955 628.652 272.955C610.529 272.955 602.527 272.955 593.751 274.615C570.554 279.005 543.424 297.489 530.851 317.471C526.094 325.031 524.18 329.899 520.351 339.636Z" fill="url(#paint12_radial_0_17)"/>
</g>
<g filter="url(#filter16_f_0_17)">
<ellipse cx="621.845" cy="343.519" rx="151.068" ry="54.4623" transform="rotate(1.0527 621.845 343.519)" fill="url(#paint13_linear_0_17)"/>
</g>
<g filter="url(#filter17_f_0_17)">
<ellipse cx="583.046" cy="358.473" rx="81.4038" ry="28.2212" transform="rotate(-71.0877 583.046 358.473)" fill="url(#paint14_linear_0_17)"/>
</g>
<g opacity="0.8" filter="url(#filter18_f_0_17)">
<path d="M543.122 587.172C423.672 565.09 422.634 459.445 423.672 413.75L369.632 450.252L382.402 593.661L543.122 655.956C583.977 645.141 643.689 605.763 543.122 587.172Z" fill="#FFE600"/>
</g>
<g opacity="0.5" filter="url(#filter19_f_0_17)">
<path d="M828.924 436.08H435.998C432.69 451.792 435.037 495.995 470.887 547.104C515.7 610.989 724.412 608.508 791.554 557.803C845.267 517.239 838.848 459.752 828.924 436.08Z" fill="url(#paint15_linear_0_17)"/>
</g>
<g filter="url(#filter20_f_0_17)">
<path d="M509.712 437.16C509.087 506.484 524.758 547.913 543.126 576C481.378 541.689 477.861 423.755 505.609 361.516C527.806 311.725 560.452 288.426 574 283C559.54 294.809 510.494 350.505 509.712 437.16Z" fill="#EC6830"/>
</g>
<g opacity="0.2" filter="url(#filter21_iif_0_17)">
<path d="M767.764 443.216C768.422 523.331 714.854 560.232 695.506 592.691C848.577 592.691 838.877 432.781 809.649 360.854C786.266 303.312 730.735 260.433 648.122 269.111C663.354 282.759 766.94 343.071 767.764 443.216Z" fill="#511F0E"/>
</g>
<g filter="url(#filter22_f_0_17)">
<path d="M752.356 439.392C752.936 507.265 738.413 547.826 721.391 575.325C793.428 540.835 786.941 425.298 761.227 364.363C740.656 315.615 705.335 293.773 692.78 288.461C706.18 300.023 751.632 354.552 752.356 439.392Z" fill="#67B108" fill-opacity="0.83"/>
</g>
</g>
</g>
<circle cx="543.35" cy="377.416" r="59.4876" fill="url(#paint16_linear_0_17)"/>
<path d="M593.006 344.645C584.135 337.533 572.875 333.28 560.621 333.28C532.006 333.28 508.809 356.476 508.809 385.091C508.809 410.869 527.635 432.25 552.287 436.236C549.372 436.676 546.388 436.903 543.35 436.903C510.496 436.903 483.863 410.27 483.863 377.416C483.863 344.562 510.496 317.928 543.35 317.928C564.095 317.928 582.36 328.547 593.006 344.645Z" fill="url(#paint17_linear_0_17)"/>
<circle cx="59.4876" cy="59.4876" r="59.4876" transform="matrix(-1 0 0 1 773.912 317.929)" fill="url(#paint18_linear_0_17)"/>
<path d="M664.77 344.645C673.64 337.533 684.901 333.279 697.154 333.279C725.769 333.279 748.966 356.476 748.966 385.091C748.966 410.869 730.141 432.25 705.488 436.236C708.403 436.675 711.388 436.903 714.425 436.903C747.279 436.903 773.913 410.269 773.913 377.415C773.913 344.561 747.279 317.928 714.425 317.928C693.68 317.928 675.416 328.546 664.77 344.645Z" fill="url(#paint19_linear_0_17)"/>
<g opacity="0.2" filter="url(#filter23_f_0_17)">
<ellipse cx="716.664" cy="378.555" rx="68.4894" ry="66.1677" transform="rotate(-113.587 716.664 378.555)" fill="#8EA826"/>
</g>
<path d="M614.503 411.442C619.912 400.696 622.617 395.322 626.622 394.325C628.049 393.97 629.541 393.97 630.968 394.325C634.973 395.322 637.677 400.696 643.086 411.442C647.624 420.457 649.892 424.964 648.682 428.532C648.246 429.815 647.526 430.984 646.576 431.95C643.933 434.635 638.887 434.635 628.795 434.635C618.703 434.635 613.657 434.635 611.014 431.95C610.064 430.984 609.344 429.815 608.908 428.532C607.697 424.964 609.966 420.457 614.503 411.442Z" fill="url(#paint20_linear_0_17)"/>
<path d="M618.68 418.458C621.421 412.742 622.792 409.885 624.481 408.715C627.136 406.877 630.653 406.877 633.308 408.715C634.997 409.885 636.367 412.742 639.108 418.458C641.274 422.975 642.357 425.234 642.324 427.07C642.272 429.952 640.626 432.567 638.05 433.86C636.409 434.683 633.904 434.683 628.894 434.683C623.884 434.683 621.38 434.683 619.738 433.86C617.162 432.567 615.516 429.952 615.464 427.07C615.431 425.234 616.514 422.975 618.68 418.458Z" fill="url(#paint21_linear_0_17)"/>
<path d="M557.411 518.107V470.503H700.067V518.107C712.615 515.308 738.531 501.978 750.853 470.503H778.373C754.68 555.725 682.855 566.176 628.739 566.176C574.623 566.176 502.798 555.725 479.105 470.503H506.625C518.947 501.978 544.863 515.308 557.411 518.107Z" fill="url(#paint22_linear_0_17)"/>
<path d="M557.411 518.03H569.533V470.503H557.411V518.03Z" fill="url(#paint23_linear_0_17)"/>
<path d="M687.945 470.503V518.03H700.067V470.503H687.945Z" fill="url(#paint24_linear_0_17)"/>
<path d="M752.943 470.503C729.064 551.29 673.658 551.29 628.739 551.29C583.82 551.29 521.747 537.579 504.535 470.503H479.105C502.798 555.725 574.623 566.176 628.739 566.176C682.855 566.176 754.68 555.725 778.373 470.503H752.943Z" fill="url(#paint25_linear_0_17)"/>
<g opacity="0.6" filter="url(#filter24_f_0_17)">
<ellipse cx="629" cy="598.5" rx="183" ry="32.5" fill="url(#paint26_linear_0_17)"/>
</g>
<defs>
<filter id="filter0_f_0_17" x="0.246017" y="-324.754" width="1242.17" height="1054.54" filterUnits="userSpaceOnUse" color-interpolation-filters="sRGB">
<feFlood flood-opacity="0" result="BackgroundImageFix"/>
<feBlend mode="normal" in="SourceGraphic" in2="BackgroundImageFix" result="shape"/>
<feGaussianBlur stdDeviation="59.377" result="effect1_foregroundBlur_0_17"/>
</filter>
<filter id="filter1_f_0_17" x="215.785" y="41.602" width="821.777" height="805.152" filterUnits="userSpaceOnUse" color-interpolation-filters="sRGB">
<feFlood flood-opacity="0" result="BackgroundImageFix"/>
<feBlend mode="normal" in="SourceGraphic" in2="BackgroundImageFix" result="shape"/>
<feGaussianBlur stdDeviation="59.377" result="effect1_foregroundBlur_0_17"/>
</filter>
<filter id="filter2_f_0_17" x="240.129" y="65.353" width="773.088" height="757.65" filterUnits="userSpaceOnUse" color-interpolation-filters="sRGB">
<feFlood flood-opacity="0" result="BackgroundImageFix"/>
<feBlend mode="normal" in="SourceGraphic" in2="BackgroundImageFix" result="shape"/>
<feGaussianBlur stdDeviation="59.377" result="effect1_foregroundBlur_0_17"/>
</filter>
<filter id="filter3_f_0_17" x="87.2062" y="-175.816" width="910.821" height="915.019" filterUnits="userSpaceOnUse" color-interpolation-filters="sRGB">
<feFlood flood-opacity="0" result="BackgroundImageFix"/>
<feBlend mode="normal" in="SourceGraphic" in2="BackgroundImageFix" result="shape"/>
<feGaussianBlur stdDeviation="56.4081" result="effect1_foregroundBlur_0_17"/>
</filter>
<filter id="filter4_f_0_17" x="287.037" y="-37.3694" width="674.523" height="752.306" filterUnits="userSpaceOnUse" color-interpolation-filters="sRGB">
<feFlood flood-opacity="0" result="BackgroundImageFix"/>
<feBlend mode="normal" in="SourceGraphic" in2="BackgroundImageFix" result="shape"/>
<feGaussianBlur stdDeviation="23.7508" result="effect1_foregroundBlur_0_17"/>
</filter>
<filter id="filter5_f_0_17" x="172.499" y="-271.501" width="792.003" height="940.003" filterUnits="userSpaceOnUse" color-interpolation-filters="sRGB">
<feFlood flood-opacity="0" result="BackgroundImageFix"/>
<feBlend mode="normal" in="SourceGraphic" in2="BackgroundImageFix" result="shape"/>
<feGaussianBlur stdDeviation="22.7507" result="effect1_foregroundBlur_0_17"/>
</filter>
<filter id="filter6_f_0_17" x="246.103" y="-129" width="692.91" height="755.945" filterUnits="userSpaceOnUse" color-interpolation-filters="sRGB">
<feFlood flood-opacity="0" result="BackgroundImageFix"/>
<feBlend mode="normal" in="SourceGraphic" in2="BackgroundImageFix" result="shape"/>
<feGaussianBlur stdDeviation="12.5" result="effect1_foregroundBlur_0_17"/>
</filter>
<filter id="filter7_f_0_17" x="312" y="2.99997" width="593" height="653" filterUnits="userSpaceOnUse" color-interpolation-filters="sRGB">
<feFlood flood-opacity="0" result="BackgroundImageFix"/>
<feBlend mode="normal" in="SourceGraphic" in2="BackgroundImageFix" result="shape"/>
<feGaussianBlur stdDeviation="22.5" result="effect1_foregroundBlur_0_17"/>
</filter>
<filter id="filter8_i_0_17" x="509.036" y="152.139" width="163.306" height="137.053" filterUnits="userSpaceOnUse" color-interpolation-filters="sRGB">
<feFlood flood-opacity="0" result="BackgroundImageFix"/>
<feBlend mode="normal" in="SourceGraphic" in2="BackgroundImageFix" result="shape"/>
<feColorMatrix in="SourceAlpha" type="matrix" values="0 0 0 0 0 0 0 0 0 0 0 0 0 0 0 0 0 0 127 0" result="hardAlpha"/>
<feOffset dx="-10.2341" dy="-7.86089"/>
<feGaussianBlur stdDeviation="14.2657"/>
<feComposite in2="hardAlpha" operator="arithmetic" k2="-1" k3="1"/>
<feColorMatrix type="matrix" values="0 0 0 0 0.68 0 0 0 0 1 0 0 0 0 0 0 0 0 0.31 0"/>
<feBlend mode="normal" in2="shape" result="effect1_innerShadow_0_17"/>
</filter>
<filter id="filter9_f_0_17" x="630.445" y="189.997" width="35.2546" height="83.1129" filterUnits="userSpaceOnUse" color-interpolation-filters="sRGB">
<feFlood flood-opacity="0" result="BackgroundImageFix"/>
<feBlend mode="normal" in="SourceGraphic" in2="BackgroundImageFix" result="shape"/>
<feGaussianBlur stdDeviation="4.49678" result="effect1_foregroundBlur_0_17"/>
</filter>
<filter id="filter10_f_0_17" x="531.078" y="167.362" width="97.4556" height="82.2037" filterUnits="userSpaceOnUse" color-interpolation-filters="sRGB">
<feFlood flood-opacity="0" result="BackgroundImageFix"/>
<feBlend mode="normal" in="SourceGraphic" in2="BackgroundImageFix" result="shape"/>
<feGaussianBlur stdDeviation="7.13283" result="effect1_foregroundBlur_0_17"/>
</filter>
<filter id="filter11_f_0_17" x="521.127" y="156.915" width="165.48" height="146.544" filterUnits="userSpaceOnUse" color-interpolation-filters="sRGB">
<feFlood flood-opacity="0" result="BackgroundImageFix"/>
<feBlend mode="normal" in="SourceGraphic" in2="BackgroundImageFix" result="shape"/>
<feGaussianBlur stdDeviation="7.13283" result="effect1_foregroundBlur_0_17"/>
</filter>
<filter id="filter12_f_0_17" x="575.554" y="163.946" width="71.1001" height="137.524" filterUnits="userSpaceOnUse" color-interpolation-filters="sRGB">
<feFlood flood-opacity="0" result="BackgroundImageFix"/>
<feBlend mode="normal" in="SourceGraphic" in2="BackgroundImageFix" result="shape"/>
<feGaussianBlur stdDeviation="6.51258" result="effect1_foregroundBlur_0_17"/>
</filter>
<filter id="filter13_d_0_17" x="368.354" y="229.227" width="529.697" height="408.277" filterUnits="userSpaceOnUse" color-interpolation-filters="sRGB">
<feFlood flood-opacity="0" result="BackgroundImageFix"/>
<feColorMatrix in="SourceAlpha" type="matrix" values="0 0 0 0 0 0 0 0 0 0 0 0 0 0 0 0 0 0 127 0" result="hardAlpha"/>
<feOffset dy="1.24049"/>
<feGaussianBlur stdDeviation="22.4839"/>
<feColorMatrix type="matrix" values="0 0 0 0 1 0 0 0 0 0.54 0 0 0 0 0 0 0 0 0.5 0"/>
<feBlend mode="normal" in2="BackgroundImageFix" result="effect1_dropShadow_0_17"/>
<feBlend mode="normal" in="SourceGraphic" in2="effect1_dropShadow_0_17" result="shape"/>
</filter>
<filter id="filter14_i_0_17" x="385.1" y="247.835" width="467.983" height="343.461" filterUnits="userSpaceOnUse" color-interpolation-filters="sRGB">
<feFlood flood-opacity="0" result="BackgroundImageFix"/>
<feBlend mode="normal" in="SourceGraphic" in2="BackgroundImageFix" result="shape"/>
<feColorMatrix in="SourceAlpha" type="matrix" values="0 0 0 0 0 0 0 0 0 0 0 0 0 0 0 0 0 0 127 0" result="hardAlpha"/>
<feOffset dx="-30.0819" dy="-25.12"/>
<feGaussianBlur stdDeviation="14.1106"/>
<feComposite in2="hardAlpha" operator="arithmetic" k2="-1" k3="1"/>
<feColorMatrix type="matrix" values="0 0 0 0 0.0599132 0 0 0 0 0.845833 0 0 0 0 0.138505 0 0 0 0.81 0"/>
<feBlend mode="normal" in2="shape" result="effect1_innerShadow_0_17"/>
</filter>
<filter id="filter15_ddi_0_17" x="436.212" y="246.904" width="325.201" height="363.619" filterUnits="userSpaceOnUse" color-interpolation-filters="sRGB">
<feFlood flood-opacity="0" result="BackgroundImageFix"/>
<feColorMatrix in="SourceAlpha" type="matrix" values="0 0 0 0 0 0 0 0 0 0 0 0 0 0 0 0 0 0 127 0" result="hardAlpha"/>
<feOffset dx="-39.0755" dy="-3.41135"/>
<feGaussianBlur stdDeviation="11.3195"/>
<feColorMatrix type="matrix" values="0 0 0 0 1 0 0 0 0 0.54 0 0 0 0 0 0 0 0 1 0"/>
<feBlend mode="normal" in2="BackgroundImageFix" result="effect1_dropShadow_0_17"/>
<feColorMatrix in="SourceAlpha" type="matrix" values="0 0 0 0 0 0 0 0 0 0 0 0 0 0 0 0 0 0 127 0" result="hardAlpha"/>
<feOffset dy="1.24049"/>
<feGaussianBlur stdDeviation="0.620246"/>
<feColorMatrix type="matrix" values="0 0 0 0 0 0 0 0 0 0 0 0 0 0 0 0 0 0 0.25 0"/>
<feBlend mode="normal" in2="effect1_dropShadow_0_17" result="effect2_dropShadow_0_17"/>
<feBlend mode="normal" in="SourceGraphic" in2="effect2_dropShadow_0_17" result="shape"/>
<feColorMatrix in="SourceAlpha" type="matrix" values="0 0 0 0 0 0 0 0 0 0 0 0 0 0 0 0 0 0 127 0" result="hardAlpha"/>
<feOffset dx="-26.0503" dy="-10.2341"/>
<feGaussianBlur stdDeviation="7.86089"/>
<feComposite in2="hardAlpha" operator="arithmetic" k2="-1" k3="1"/>
<feColorMatrix type="matrix" values="0 0 0 0 0.933375 0 0 0 0 0.95 0 0 0 0 0.11875 0 0 0 0.75 0"/>
<feBlend mode="normal" in2="shape" result="effect3_innerShadow_0_17"/>
</filter>
<filter id="filter16_f_0_17" x="429.529" y="247.723" width="384.632" height="191.591" filterUnits="userSpaceOnUse" color-interpolation-filters="sRGB">
<feFlood flood-opacity="0" result="BackgroundImageFix"/>
<feBlend mode="normal" in="SourceGraphic" in2="BackgroundImageFix" result="shape"/>
<feGaussianBlur stdDeviation="20.6351" result="effect1_foregroundBlur_0_17"/>
</filter>
<filter id="filter17_f_0_17" x="504.24" y="239.644" width="157.611" height="237.657" filterUnits="userSpaceOnUse" color-interpolation-filters="sRGB">
<feFlood flood-opacity="0" result="BackgroundImageFix"/>
<feBlend mode="normal" in="SourceGraphic" in2="BackgroundImageFix" result="shape"/>
<feGaussianBlur stdDeviation="20.6351" result="effect1_foregroundBlur_0_17"/>
</filter>
<filter id="filter18_f_0_17" x="353.505" y="397.624" width="260.963" height="274.459" filterUnits="userSpaceOnUse" color-interpolation-filters="sRGB">
<feFlood flood-opacity="0" result="BackgroundImageFix"/>
<feBlend mode="normal" in="SourceGraphic" in2="BackgroundImageFix" result="shape"/>
<feGaussianBlur stdDeviation="8.06319" result="effect1_foregroundBlur_0_17"/>
</filter>
<filter id="filter19_f_0_17" x="388.396" y="389.561" width="493.76" height="252.437" filterUnits="userSpaceOnUse" color-interpolation-filters="sRGB">
<feFlood flood-opacity="0" result="BackgroundImageFix"/>
<feBlend mode="normal" in="SourceGraphic" in2="BackgroundImageFix" result="shape"/>
<feGaussianBlur stdDeviation="23.2592" result="effect1_foregroundBlur_0_17"/>
</filter>
<filter id="filter20_f_0_17" x="475.975" y="269.975" width="111.05" height="319.05" filterUnits="userSpaceOnUse" color-interpolation-filters="sRGB">
<feFlood flood-opacity="0" result="BackgroundImageFix"/>
<feBlend mode="normal" in="SourceGraphic" in2="BackgroundImageFix" result="shape"/>
<feGaussianBlur stdDeviation="6.51258" result="effect1_foregroundBlur_0_17"/>
</filter>
<filter id="filter21_iif_0_17" x="633.547" y="253.417" width="208.092" height="353.85" filterUnits="userSpaceOnUse" color-interpolation-filters="sRGB">
<feFlood flood-opacity="0" result="BackgroundImageFix"/>
<feBlend mode="normal" in="SourceGraphic" in2="BackgroundImageFix" result="shape"/>
<feColorMatrix in="SourceAlpha" type="matrix" values="0 0 0 0 0 0 0 0 0 0 0 0 0 0 0 0 0 0 127 0" result="hardAlpha"/>
<feOffset dy="1.24049"/>
<feGaussianBlur stdDeviation="0.620246"/>
<feComposite in2="hardAlpha" operator="arithmetic" k2="-1" k3="1"/>
<feColorMatrix type="matrix" values="0 0 0 0 0.425 0 0 0 0 0.189267 0 0 0 0 0.0566667 0 0 0 0.5 0"/>
<feBlend mode="normal" in2="shape" result="effect1_innerShadow_0_17"/>
<feColorMatrix in="SourceAlpha" type="matrix" values="0 0 0 0 0 0 0 0 0 0 0 0 0 0 0 0 0 0 127 0" result="hardAlpha"/>
<feOffset dx="21.0884" dy="6.51258"/>
<feGaussianBlur stdDeviation="0.620246"/>
<feComposite in2="hardAlpha" operator="arithmetic" k2="-1" k3="1"/>
<feColorMatrix type="matrix" values="0 0 0 0 0 0 0 0 0 0 0 0 0 0 0 0 0 0 0.25 0"/>
<feBlend mode="normal" in2="effect1_innerShadow_0_17" result="effect2_innerShadow_0_17"/>
<feGaussianBlur stdDeviation="7.28789" result="effect3_foregroundBlur_0_17"/>
</filter>
<filter id="filter22_f_0_17" x="679.754" y="275.436" width="112.343" height="312.914" filterUnits="userSpaceOnUse" color-interpolation-filters="sRGB">
<feFlood flood-opacity="0" result="BackgroundImageFix"/>
<feBlend mode="normal" in="SourceGraphic" in2="BackgroundImageFix" result="shape"/>
<feGaussianBlur stdDeviation="6.51258" result="effect1_foregroundBlur_0_17"/>
</filter>
<filter id="filter23_f_0_17" x="626.269" y="286.581" width="180.79" height="183.949" filterUnits="userSpaceOnUse" color-interpolation-filters="sRGB">
<feFlood flood-opacity="0" result="BackgroundImageFix"/>
<feBlend mode="normal" in="SourceGraphic" in2="BackgroundImageFix" result="shape"/>
<feGaussianBlur stdDeviation="11.9169" result="effect1_foregroundBlur_0_17"/>
</filter>
<filter id="filter24_f_0_17" x="406.072" y="526.072" width="445.856" height="144.856" filterUnits="userSpaceOnUse" color-interpolation-filters="sRGB">
<feFlood flood-opacity="0" result="BackgroundImageFix"/>
<feBlend mode="normal" in="SourceGraphic" in2="BackgroundImageFix" result="shape"/>
<feGaussianBlur stdDeviation="19.9641" result="effect1_foregroundBlur_0_17"/>
</filter>
<linearGradient id="paint0_linear_0_17" x1="829.604" y1="-145.552" x2="688.262" y2="466.789" gradientUnits="userSpaceOnUse">
<stop stop-color="#B9FF8D" stop-opacity="0"/>
<stop offset="0.50718" stop-color="#46FF85" stop-opacity="0.12"/>
<stop offset="1" stop-color="#FFE600" stop-opacity="0"/>
</linearGradient>
<linearGradient id="paint1_linear_0_17" x1="626.673" y1="160.356" x2="626.673" y2="728" gradientUnits="userSpaceOnUse">
<stop stop-color="#50FF76" stop-opacity="0.38"/>
<stop offset="1" stop-color="#50FFA0" stop-opacity="0"/>
</linearGradient>
<linearGradient id="paint2_linear_0_17" x1="626.673" y1="184.107" x2="626.673" y2="428.38" gradientUnits="userSpaceOnUse">
<stop stop-color="#FFFACE"/>
<stop offset="1" stop-color="white" stop-opacity="0"/>
</linearGradient>
<linearGradient id="paint3_linear_0_17" x1="544.015" y1="2.79178" x2="544.015" y2="690.681" gradientUnits="userSpaceOnUse">
<stop stop-color="#A6FFEA" stop-opacity="0.95"/>
<stop offset="1" stop-color="#F6EB4E" stop-opacity="0"/>
</linearGradient>
<linearGradient id="paint4_linear_0_17" x1="837.165" y1="98.0101" x2="625.491" y2="684.924" gradientUnits="userSpaceOnUse">
<stop stop-color="#FFFBA0" stop-opacity="0.15"/>
<stop offset="1" stop-color="#3AFFE7" stop-opacity="0.06"/>
</linearGradient>
<linearGradient id="paint5_linear_0_17" x1="264.449" y1="-8.82259" x2="678.356" y2="444.179" gradientUnits="userSpaceOnUse">
<stop stop-color="#FDEE67" stop-opacity="0.49"/>
<stop offset="1" stop-color="#44FFE9" stop-opacity="0.29"/>
</linearGradient>
<radialGradient id="paint6_radial_0_17" cx="0" cy="0" r="1" gradientUnits="userSpaceOnUse" gradientTransform="translate(676.861 183.954) rotate(178.317) scale(223.799 355.093)">
<stop stop-color="#EDFFA4" stop-opacity="0.3"/>
<stop offset="1" stop-color="#B2FF50" stop-opacity="0.04"/>
</radialGradient>
<linearGradient id="paint7_linear_0_17" x1="390.329" y1="181.729" x2="669.754" y2="504.709" gradientUnits="userSpaceOnUse">
<stop stop-color="#FEFFD2" stop-opacity="0.31"/>
<stop offset="1" stop-color="#B2FF50" stop-opacity="0.1"/>
</linearGradient>
<radialGradient id="paint8_radial_0_17" cx="0" cy="0" r="1" gradientUnits="userSpaceOnUse" gradientTransform="translate(543.5 155) rotate(70.119) scale(146.794 126.358)">
<stop stop-color="#E8F360"/>
<stop offset="0.420971" stop-color="#F7B34E" stop-opacity="0.990923"/>
<stop offset="0.829897" stop-color="#FFA843"/>
<stop offset="1" stop-color="#89F235"/>
</radialGradient>
<linearGradient id="paint9_linear_0_17" x1="579.806" y1="181.628" x2="579.806" y2="235.3" gradientUnits="userSpaceOnUse">
<stop stop-color="#9E4722"/>
<stop offset="1" stop-color="#BB391C" stop-opacity="0.87"/>
</linearGradient>
<linearGradient id="paint10_linear_0_17" x1="603.867" y1="171.18" x2="603.867" y2="289.193" gradientUnits="userSpaceOnUse">
<stop stop-color="#9E4722"/>
<stop offset="1" stop-color="#BB391C" stop-opacity="0.87"/>
</linearGradient>
<radialGradient id="paint11_radial_0_17" cx="0" cy="0" r="1" gradientUnits="userSpaceOnUse" gradientTransform="translate(628.924 317.99) rotate(64.8675) scale(301.559 359.735)">
<stop stop-color="#F1A42F"/>
<stop offset="0.420971" stop-color="#FCDB69" stop-opacity="0.990923"/>
<stop offset="0.829897" stop-color="#F8B147" stop-opacity="0.77"/>
<stop offset="1" stop-color="#EEAF4F"/>
</radialGradient>
<radialGradient id="paint12_radial_0_17" cx="0" cy="0" r="1" gradientUnits="userSpaceOnUse" gradientTransform="translate(629.049 317.99) rotate(90.8281) scale(282.828 169.306)">
<stop stop-color="#F38B2C"/>
<stop offset="0.420971" stop-color="#FFA681" stop-opacity="0.990923"/>
<stop offset="0.829897" stop-color="#F79A10" stop-opacity="0.77"/>
</radialGradient>
<linearGradient id="paint13_linear_0_17" x1="490.797" y1="312.121" x2="520.843" y2="416.418" gradientUnits="userSpaceOnUse">
<stop stop-color="#FFEB37" stop-opacity="0.71"/>
<stop offset="1" stop-color="#FF7C02" stop-opacity="0.7"/>
</linearGradient>
<linearGradient id="paint14_linear_0_17" x1="512.43" y1="342.203" x2="527.488" y2="396.561" gradientUnits="userSpaceOnUse">
<stop stop-color="white"/>
<stop offset="1" stop-color="#FFFFF8" stop-opacity="0.7"/>
</linearGradient>
<linearGradient id="paint15_linear_0_17" x1="635.276" y1="436.08" x2="635.276" y2="595.48" gradientUnits="userSpaceOnUse">
<stop stop-color="#F8A120"/>
<stop offset="1" stop-color="#A5BB1C" stop-opacity="0.87"/>
</linearGradient>
<linearGradient id="paint16_linear_0_17" x1="543.35" y1="317.928" x2="543.35" y2="436.903" gradientUnits="userSpaceOnUse">
<stop stop-color="#27613E"/>
<stop offset="1" stop-color="#1B213F"/>
</linearGradient>
<linearGradient id="paint17_linear_0_17" x1="565.164" y1="328.467" x2="548.573" y2="444.453" gradientUnits="userSpaceOnUse">
<stop stop-color="#AF6E31"/>
<stop offset="0.558371" stop-color="#E45314" stop-opacity="0.990923"/>
<stop offset="1" stop-color="#FFC700"/>
</linearGradient>
<linearGradient id="paint18_linear_0_17" x1="59.4876" y1="0" x2="59.4876" y2="118.975" gradientUnits="userSpaceOnUse">
<stop stop-color="#27613E"/>
<stop offset="1" stop-color="#1B213F"/>
</linearGradient>
<linearGradient id="paint19_linear_0_17" x1="746.072" y1="328.466" x2="729.48" y2="444.452" gradientUnits="userSpaceOnUse">
<stop stop-color="#9C500A"/>
<stop offset="0.558371" stop-color="#E45314" stop-opacity="0.990923"/>
<stop offset="1" stop-color="#FFC700"/>
</linearGradient>
<linearGradient id="paint20_linear_0_17" x1="632.247" y1="412.819" x2="637.397" y2="447.162" gradientUnits="userSpaceOnUse">
<stop stop-color="#9C500A"/>
<stop offset="1" stop-color="#FF2E00"/>
</linearGradient>
<linearGradient id="paint21_linear_0_17" x1="628.894" y1="397.159" x2="628.894" y2="434.683" gradientUnits="userSpaceOnUse">
<stop stop-color="#1D2B3F"/>
<stop offset="1" stop-color="#1A4A33"/>
</linearGradient>
<linearGradient id="paint22_linear_0_17" x1="724.5" y1="538" x2="628.739" y2="566.176" gradientUnits="userSpaceOnUse">
<stop stop-color="#27613E"/>
<stop offset="1" stop-color="#1B213F"/>
</linearGradient>
<linearGradient id="paint23_linear_0_17" x1="715.5" y1="462.5" x2="706.25" y2="576.288" gradientUnits="userSpaceOnUse">
<stop stop-color="#225321"/>
<stop offset="0.558371" stop-color="#E46C14" stop-opacity="0.990923"/>
<stop offset="1" stop-color="#FFC700"/>
</linearGradient>
<linearGradient id="paint24_linear_0_17" x1="715.5" y1="462.5" x2="706.25" y2="576.288" gradientUnits="userSpaceOnUse">
<stop stop-color="#225321"/>
<stop offset="0.558371" stop-color="#E46C14" stop-opacity="0.990923"/>
<stop offset="1" stop-color="#FFC700"/>
</linearGradient>
<linearGradient id="paint25_linear_0_17" x1="715.5" y1="462.5" x2="706.25" y2="576.288" gradientUnits="userSpaceOnUse">
<stop stop-color="#225321"/>
<stop offset="0.558371" stop-color="#E46C14" stop-opacity="0.990923"/>
<stop offset="1" stop-color="#FFC700"/>
</linearGradient>
<linearGradient id="paint26_linear_0_17" x1="629" y1="566" x2="629" y2="631" gradientUnits="userSpaceOnUse">
<stop/>
<stop offset="1" stop-color="#151433" stop-opacity="0.87"/>
<stop offset="1" stop-color="#251F27" stop-opacity="0.87"/>
</linearGradient>
</defs>
</svg>
