<?xml version="1.0" encoding="utf-8"?>
<!-- Generator: Adobe Illustrator 27.5.0, SVG Export Plug-In . SVG Version: 6.00 Build 0)  -->
<svg version="1.1" id="normaal_logo" xmlns="http://www.w3.org/2000/svg" xmlns:xlink="http://www.w3.org/1999/xlink" x="0px"
	 y="0px" viewBox="0 0 527.84 244.72" style="enable-background:new 0 0 527.84 244.72;" xml:space="preserve">
<style type="text/css">
	.st0{fill:#490052;stroke:#E6F1DF;stroke-width:2.5;stroke-miterlimit:10;}
</style>
<g id="infinite_sounds_reallllll">
	<g id="sounds_00000182500283076345800970000009618881680527418241_">
		<g>
			<g id="S_00000057120995898356887420000009827166607558048676_">
				<path class="st0" d="M48.57,91.73c0,5.09,0,10.18,0,15.27"/>
				<path class="st0" d="M26.4,114.93c0,25.46,0,50.92,0,76.37"/>
				<path class="st0" d="M37.48,102.98c0,5.09,0,10.18,0,15.27"/>
				<path class="st0" d="M15.31,127.6c0,5.09,0,10.18,0,15.27"/>
				<path class="st0" d="M4.23,141.03c0,5.09,0,10.18,0,15.27"/>
				<path class="st0" d="M15.31,142.87c0,5.09,0,10.18,0,15.27"/>
				<path class="st0" d="M48.57,152.83c0,5.09,0,10.18,0,15.27"/>
				<path class="st0" d="M37.48,164.08c0,5.09,0,10.18,0,15.27"/>
				<path class="st0" d="M37.48,151.08c0,5.09,0,10.18,0,15.27"/>
				<path class="st0" d="M15.31,188.7c0,5.09,0,10.18,0,15.27"/>
				<path class="st0" d="M4.23,202.13c0,5.09,0,10.18,0,15.27"/>
			</g>
			<g>
				<path class="st0" d="M114.7,76.24c0,5.04,0,10.07,0,15.11"/>
				<path class="st0" d="M103.6,81.72c0,5.04,0,10.07,0,15.11"/>
				<path class="st0" d="M92.53,92.22c0,5.04,0,10.07,0,15.11"/>
				<path class="st0" d="M81.37,106.88c0,21.65,0,43.3,0,64.95"/>
				<path class="st0" d="M92.35,168.44c0,5.04,0,10.07,0,15.11"/>
				<path class="st0" d="M103.51,177.25c0,5.04,0,10.07,0,15.11"/>
				<path class="st0" d="M70.36,132.98c0,5.04,0,10.07,0,15.11"/>
				<path class="st0" d="M114.7,181.34c0,5.04,0,10.07,0,15.11"/>
				<path class="st0" d="M125.57,81.79c0,5.04,0,10.07,0,15.11"/>
				<path class="st0" d="M136.49,91.37c0,5.04,0,10.07,0,15.11"/>
				<path class="st0" d="M147.65,105.28c0,21.95,0,43.9,0,65.85"/>
				<path class="st0" d="M136.66,167.87c0,5.04,0,10.07,0,15.11"/>
				<path class="st0" d="M125.5,177.31c0,5.04,0,10.07,0,15.11"/>
				<path class="st0" d="M158.66,132.56c0,5.04,0,10.07,0,15.11"/>
			</g>
			<g id="U_00000087384308921074228140000005886651635548181678_">
				<path class="st0" d="M257.55,109.14c0,21.61,0,43.22,0,64.83"/>
				<path class="st0" d="M180.78,89.86c0,21.61,0,43.22,0,64.83"/>
				<path class="st0" d="M191.77,92.69c0,32.33,0,64.65,0,96.98"/>
				<path class="st0" d="M202.85,198.81c0-5.04,0-10.07,0-15.11"/>
				<path class="st0" d="M211.01,193.22c0,5.04,0,10.07,0,15.11"/>
				<path class="st0" d="M228.44,197.71c0,5.04,0,10.07,0,15.11"/>
				<path class="st0" d="M219.48,200.69c0,5.04,0,10.07,0,15.11"/>
				<path class="st0" d="M236.11,191.24c0,5.04,0,10.07,0,15.11"/>
				<path class="st0" d="M247.19,106.79c0,32.33,0,64.65,0,96.98"/>
			</g>
			<g id="N_00000078041255184641806420000004835299580807755676_">
				<path class="st0" d="M279.7,115.4c0,35.42,0,70.84,0,106.26"/>
				<path class="st0" d="M311.11,154.77c0,7.64,0,15.27,0,22.91"/>
				<path class="st0" d="M303.26,143.97c0,7.72,0,15.44,0,23.17"/>
				<path class="st0" d="M326.81,176.14c0,7.67,0,15.34,0,23"/>
				<path class="st0" d="M318.96,165.49c0,7.67,0,15.34,0,23"/>
				<path class="st0" d="M342.54,197.14c0,7.64,0,15.27,0,22.91"/>
				<path class="st0" d="M350.39,207.46c0,7.67,0,15.34,0,23"/>
				<path class="st0" d="M334.69,186.69c0,7.67,0,15.34,0,23"/>
				<path class="st0" d="M358.21,134.31c0,35.41,0,70.81,0,106.22"/>
				<path class="st0" d="M295.41,133.15c0,7.7,0,15.4,0,23.1"/>
				<path class="st0" d="M287.56,122.24c0,7.7,0,15.4,0,23.1"/>
			</g>
			<g id="D_00000176010491026769865380000010340565001421441452_">
				<path class="st0" d="M380.32,137.23c0,35.41,0,70.81,0,106.22"/>
				<path class="st0" d="M406.74,144.38c0,7.6,0,15.2,0,22.8"/>
				<path class="st0" d="M393.53,138.48c0,5.51,0,11.03,0,16.54"/>
				<path class="st0" d="M419.95,152.69c0,7.6,0,15.2,0,22.8"/>
				<path class="st0" d="M446.37,166.07c0,7.6,0,15.2,0,22.8"/>
				<path class="st0" d="M433.16,159.72c0,7.6,0,15.2,0,22.8"/>
				<path class="st0" d="M458.83,175.55c0,7.6,0,15.2,0,22.8"/>
				<path class="st0" d="M458.83,178.31c0,7.6,0,15.2,0,22.8"/>
				<path class="st0" d="M446.37,191.27c0,7.6,0,15.2,0,22.8"/>
				<path class="st0" d="M433.16,198c0,7.6,0,15.2,0,22.8"/>
				<path class="st0" d="M446.37,185.33c0,7.6,0,15.2,0,22.8"/>
				<path class="st0" d="M446.37,172.33c0,7.6,0,15.2,0,22.8"/>
				<path class="st0" d="M419.95,207.24c0,7.6,0,15.2,0,22.8"/>
				<path class="st0" d="M406.74,217.2c0,7.6,0,15.2,0,22.8"/>
				<path class="st0" d="M393.53,228.18c0,5.51,0,11.03,0,16.54"/>
			</g>
			<g id="S_00000086659321042525432260000008086977158483091902_">
				<path class="st0" d="M525.29,111.88c0,5.09,0,10.18,0,15.27"/>
				<path class="st0" d="M503.12,137.99c0,25.46,0,50.92,0,76.37"/>
				<path class="st0" d="M514.21,125.32c0,5.09,0,10.18,0,15.27"/>
				<path class="st0" d="M492.04,149.93c0,5.09,0,10.18,0,15.27"/>
				<path class="st0" d="M480.95,161.19c0,5.09,0,10.18,0,15.27"/>
				<path class="st0" d="M492.04,165.21c0,5.09,0,10.18,0,15.27"/>
				<path class="st0" d="M525.29,172.98c0,5.09,0,10.18,0,15.27"/>
				<path class="st0" d="M514.21,186.41c0,5.09,0,10.18,0,15.27"/>
				<path class="st0" d="M514.21,173.41c0,5.09,0,10.18,0,15.27"/>
				<path class="st0" d="M492.04,211.03c0,5.09,0,10.18,0,15.27"/>
				<path class="st0" d="M480.95,222.29c0,5.09,0,10.18,0,15.27"/>
			</g>
		</g>
	</g>
	<g id="infinitre_00000036220566199022706590000012747388125228817056_">
		<g>
			<path class="st0" d="M153.11,31.95c0,4.5,0,9.01,0,13.51"/>
			<path class="st0" d="M162.41,32.59c0,4.5,0,9.01,0,13.51"/>
			<path class="st0" d="M143.8,7.31c0,20.98,0,41.96,0,62.95"/>
			<path class="st0" d="M153.11,7.84c0,4.31,0,8.62,0,12.92"/>
			<path class="st0" d="M162.41,8.48c0,4.31,0,8.61,0,12.92"/>
			<path class="st0" d="M171.71,9.22c0,4.31,0,8.62,0,12.92"/>
			<path class="st0" d="M181.02,10.07c0,4.31,0,8.62,0,12.92"/>
			<path class="st0" d="M4.23,20.07c0,4.23,0,8.46,0,12.68"/>
			<path class="st0" d="M13.55,17.67c0,4.23,0,8.46,0,12.68"/>
			<path class="st0" d="M22.88,15.53c0,4.23,0,8.46,0,12.68"/>
			<path class="st0" d="M4.23,70.08c0,4.31,0,8.62,0,12.92"/>
			<path class="st0" d="M13.55,67.68c0,4.31,0,8.62,0,12.92"/>
			<path class="st0" d="M22.88,65.54c0,4.31,0,8.62,0,12.92"/>
			<path class="st0" d="M32.19,13.65c0,20.99,0,41.98,0,62.98"/>
			<path class="st0" d="M41.48,12.02c0,4.23,0,8.46,0,12.68"/>
			<path class="st0" d="M50.77,10.62c0,4.23,0,8.46,0,12.68"/>
			<path class="st0" d="M60.06,9.44c0,4.23,0,8.46,0,12.68"/>
			<path class="st0" d="M41.48,62.02c0,4.31,0,8.61,0,12.92"/>
			<path class="st0" d="M50.77,60.62c0,4.31,0,8.62,0,12.92"/>
			<path class="st0" d="M60.06,59.44c0,4.31,0,8.61,0,12.92"/>
			<path class="st0" d="M199.63,11.98c0,4.23,0,8.46,0,12.68"/>
			<path class="st0" d="M208.95,13.06c0,4.23,0,8.46,0,12.68"/>
			<path class="st0" d="M218.28,14.2c0,4.23,0,8.46,0,12.68"/>
			<path class="st0" d="M199.63,61.99c0,4.31,0,8.62,0,12.92"/>
			<path class="st0" d="M208.95,63.07c0,4.31,0,8.61,0,12.92"/>
			<path class="st0" d="M218.28,64.21c0,4.31,0,8.61,0,12.92"/>
			<path class="st0" d="M227.58,15.39c0,20.99,0,41.98,0,62.98"/>
			<path class="st0" d="M236.88,16.61c0,4.23,0,8.46,0,12.68"/>
			<path class="st0" d="M246.17,17.86c0,4.23,0,8.46,0,12.68"/>
			<path class="st0" d="M255.46,19.13c0,4.23,0,8.46,0,12.68"/>
			<path class="st0" d="M236.88,66.62c0,4.31,0,8.62,0,12.92"/>
			<path class="st0" d="M246.17,67.87c0,4.31,0,8.62,0,12.92"/>
			<path class="st0" d="M255.46,69.14c0,4.31,0,8.61,0,12.92"/>
			<path class="st0" d="M339.2,29.86c0,4.23,0,8.46,0,12.68"/>
			<path class="st0" d="M348.52,30.79c0,4.23,0,8.46,0,12.68"/>
			<path class="st0" d="M357.85,31.64c0,4.23,0,8.46,0,12.68"/>
			<path class="st0" d="M339.2,79.86c0,4.31,0,8.61,0,12.92"/>
			<path class="st0" d="M348.52,80.8c0,4.31,0,8.62,0,12.92"/>
			<path class="st0" d="M357.85,81.64c0,4.31,0,8.62,0,12.92"/>
			<path class="st0" d="M367.16,32.38c0,20.99,0,41.98,0,62.98"/>
			<path class="st0" d="M376.45,33.02c0,4.23,0,8.46,0,12.68"/>
			<path class="st0" d="M385.74,33.54c0,4.23,0,8.46,0,12.68"/>
			<path class="st0" d="M395.03,33.94c0,4.23,0,8.46,0,12.68"/>
			<path class="st0" d="M376.45,83.03c0,4.31,0,8.62,0,12.92"/>
			<path class="st0" d="M385.74,83.55c0,4.31,0,8.62,0,12.92"/>
			<path class="st0" d="M395.03,83.95c0,4.31,0,8.62,0,12.92"/>
			<path class="st0" d="M274.06,21.7c0,20.99,0,41.98,0,62.98"/>
			<path class="st0" d="M292.68,46.86c0,4.5,0,9.01,0,13.51"/>
			<path class="st0" d="M301.98,58.71c0,4.5,0,9.01,0,13.51"/>
			<path class="st0" d="M311.3,69.06c0,4.5,0,9.01,0,13.51"/>
			<path class="st0" d="M320.59,27.8c0,20.98,0,41.96,0,62.95"/>
			<path class="st0" d="M283.37,32.68c0,4.31,0,8.62,0,12.92"/>
			<path class="st0" d="M413.64,34.33c0,4.23,0,8.46,0,12.68"/>
			<path class="st0" d="M422.96,34.29c0,4.23,0,8.46,0,12.68"/>
			<path class="st0" d="M432.28,34.08c0,4.23,0,8.46,0,12.68"/>
			<path class="st0" d="M441.59,33.7c0,20.99,0,41.98,0,62.98"/>
			<path class="st0" d="M450.89,33.13c0,4.23,0,8.46,0,12.68"/>
			<path class="st0" d="M460.17,32.37c0,4.23,0,8.46,0,12.68"/>
			<path class="st0" d="M469.46,31.4c0,4.23,0,8.46,0,12.68"/>
			<path class="st0" d="M497.38,51.31c0,4.5,0,9.01,0,13.51"/>
			<path class="st0" d="M506.68,49.43c0,4.5,0,9.01,0,13.51"/>
			<path class="st0" d="M488.07,28.83c0,20.98,0,41.96,0,62.95"/>
			<path class="st0" d="M497.38,27.2c0,4.31,0,8.61,0,12.92"/>
			<path class="st0" d="M506.68,25.32c0,4.31,0,8.62,0,12.92"/>
			<path class="st0" d="M515.99,23.18c0,4.31,0,8.61,0,12.92"/>
			<path class="st0" d="M525.29,20.79c0,4.31,0,8.62,0,12.92"/>
			<path class="st0" d="M497.38,77.23c0,4.31,0,8.61,0,12.92"/>
			<path class="st0" d="M506.68,75.35c0,4.31,0,8.62,0,12.92"/>
			<path class="st0" d="M515.99,73.22c0,4.31,0,8.61,0,12.92"/>
			<path class="st0" d="M525.29,70.82c0,4.31,0,8.62,0,12.92"/>
			<path class="st0" d="M78.67,7.71c0,20.99,0,41.98,0,62.98"/>
			<path class="st0" d="M97.28,29.4c0,4.5,0,9.01,0,13.51"/>
			<path class="st0" d="M106.58,39.82c0,4.5,0,9.01,0,13.51"/>
			<path class="st0" d="M115.9,48.94c0,4.5,0,9.01,0,13.51"/>
			<path class="st0" d="M125.19,6.66c0,20.98,0,41.96,0,62.95"/>
			<path class="st0" d="M87.97,16.86c0,4.31,0,8.61,0,12.92"/>
		</g>
	</g>
</g>
</svg>
